<?xml version="1.0" encoding="UTF-8" standalone="no"?>
<!-- Created with Inkscape (http://www.inkscape.org/) -->

<svg
   xmlns:dc="http://purl.org/dc/elements/1.1/"
   xmlns:cc="http://creativecommons.org/ns#"
   xmlns:rdf="http://www.w3.org/1999/02/22-rdf-syntax-ns#"
   xmlns:svg="http://www.w3.org/2000/svg"
   xmlns="http://www.w3.org/2000/svg"
   xmlns:sodipodi="http://sodipodi.sourceforge.net/DTD/sodipodi-0.dtd"
   xmlns:inkscape="http://www.inkscape.org/namespaces/inkscape"
   width="106.29922"
   height="70.86467"
   id="svg9377"
   version="1.1"
   inkscape:version="0.48.5 r10040"
   sodipodi:docname="Nouveau document 49">
  <defs
     id="defs9379" />
  <sodipodi:namedview
     id="base"
     pagecolor="#ffffff"
     bordercolor="#666666"
     borderopacity="1.0"
     inkscape:pageopacity="0.0"
     inkscape:pageshadow="2"
     inkscape:zoom="0.35"
     inkscape:cx="79.57818"
     inkscape:cy="-193.13909"
     inkscape:document-units="px"
     inkscape:current-layer="layer1"
     showgrid="false"
     fit-margin-top="0"
     fit-margin-left="0"
     fit-margin-right="0"
     fit-margin-bottom="0"
     inkscape:window-width="511"
     inkscape:window-height="453"
     inkscape:window-x="125"
     inkscape:window-y="125"
     inkscape:window-maximized="0" />
  <metadata
     id="metadata9382">
    <rdf:RDF>
      <cc:Work
         rdf:about="">
        <dc:format>image/svg+xml</dc:format>
        <dc:type
           rdf:resource="http://purl.org/dc/dcmitype/StillImage" />
        <dc:title></dc:title>
      </cc:Work>
    </rdf:RDF>
  </metadata>
  <g
     inkscape:label="Calque 1"
     inkscape:groupmode="layer"
     id="layer1"
     transform="translate(-295.42182,-268.35842)">
    <path
       inkscape:connector-curvature="0"
       d="m 295.42182,339.22309 106.29922,0 0,-35.50112 -106.29922,0 0,35.50112 z"
       style="fill:#eff2f2;fill-opacity:1;fill-rule:nonzero;stroke:none"
       id="path1650" />
    <path
       inkscape:connector-curvature="0"
       d="m 295.42182,303.85954 106.29922,0 0,-35.50112 -106.29922,0 0,35.50112 z"
       style="fill:#e63835;fill-opacity:1;fill-rule:nonzero;stroke:none"
       id="path1652" />
    <path
       inkscape:connector-curvature="0"
       d="m 318.88498,297.12415 c -6.51868,0 -11.79989,-5.28279 -11.79989,-11.79833 0,-6.5171 5.28121,-11.79989 11.79989,-11.79989 1.0553,0 2.07605,0.1539 3.05283,0.41301 -1.87033,-1.03645 -4.01862,-1.6332 -6.30825,-1.6332 -7.19237,0 -13.02008,5.82928 -13.02008,13.02008 0,7.19081 5.82771,13.02009 13.02008,13.02009 2.28963,0 4.43792,-0.59675 6.30825,-1.63321 -0.97678,0.25912 -1.99753,0.41145 -3.05283,0.41145"
       style="fill:#eff2f2;fill-opacity:1;fill-rule:nonzero;stroke:none"
       id="path1654" />
    <path
       inkscape:connector-curvature="0"
       d="m 320.40982,282.07512 0.56848,1.75255 1.84207,0 -1.48873,1.082 0.56848,1.75098 -1.4903,-1.08199 -1.49186,1.08199 0.56848,-1.75098 -1.48873,-1.082 1.84363,0 0.56848,-1.75255"
       style="fill:#ffffff;fill-opacity:1;fill-rule:nonzero;stroke:none"
       id="path1656" />
    <path
       inkscape:connector-curvature="0"
       d="m 331.41353,282.07512 0.56848,1.75255 1.84363,0 -1.49186,1.082 0.56848,1.75098 -1.48873,-1.08199 -1.48873,1.08199 0.56848,-1.75098 -1.49187,-1.082 1.84364,0 0.56848,-1.75255"
       style="fill:#ffffff;fill-opacity:1;fill-rule:nonzero;stroke:none"
       id="path1658" />
    <path
       inkscape:connector-curvature="0"
       d="m 328.7423,287.5228 0.56848,1.75255 1.84207,0 -1.4903,1.082 0.57005,1.75255 -1.4903,-1.08357 -1.49187,1.08357 0.56848,-1.75255 -1.48872,-1.082 1.84049,0 0.57162,-1.75255"
       style="fill:#ffffff;fill-opacity:1;fill-rule:nonzero;stroke:none"
       id="path1660" />
    <path
       inkscape:connector-curvature="0"
       d="m 323.08105,287.5228 0.56848,1.75255 1.84364,0 -1.49187,1.082 0.56848,1.75255 -1.48873,-1.08357 -1.48872,1.08357 0.56848,-1.75255 -1.49187,-1.082 1.84363,0 0.56848,-1.75255"
       style="fill:#ffffff;fill-opacity:1;fill-rule:nonzero;stroke:none"
       id="path1662" />
    <path
       inkscape:connector-curvature="0"
       d="m 325.86221,278.2104 0.56848,1.75255 1.84206,0 -1.49029,1.082 0.56848,1.75098 -1.48873,-1.082 -1.4903,1.082 0.56848,-1.75098 -1.4903,-1.082 1.84364,0 0.56848,-1.75255"
       style="fill:#ffffff;fill-opacity:1;fill-rule:nonzero;stroke:none"
       id="path1664" />
  </g>
</svg>
