<?xml version="1.0" encoding="UTF-8" standalone="no"?>
<!-- Created with Inkscape (http://www.inkscape.org/) -->

<svg
   xmlns:dc="http://purl.org/dc/elements/1.1/"
   xmlns:cc="http://creativecommons.org/ns#"
   xmlns:rdf="http://www.w3.org/1999/02/22-rdf-syntax-ns#"
   xmlns:svg="http://www.w3.org/2000/svg"
   xmlns="http://www.w3.org/2000/svg"
   xmlns:sodipodi="http://sodipodi.sourceforge.net/DTD/sodipodi-0.dtd"
   xmlns:inkscape="http://www.inkscape.org/namespaces/inkscape"
   width="106.29922"
   height="70.940369"
   id="svg9285"
   version="1.1"
   inkscape:version="0.48.5 r10040"
   sodipodi:docname="Nouveau document 45">
  <defs
     id="defs9287" />
  <sodipodi:namedview
     id="base"
     pagecolor="#ffffff"
     bordercolor="#666666"
     borderopacity="1.0"
     inkscape:pageopacity="0.0"
     inkscape:pageshadow="2"
     inkscape:zoom="0.35"
     inkscape:cx="53.14961"
     inkscape:cy="35.470187"
     inkscape:document-units="px"
     inkscape:current-layer="layer1"
     showgrid="false"
     fit-margin-top="0"
     fit-margin-left="0"
     fit-margin-right="0"
     fit-margin-bottom="0"
     inkscape:window-width="511"
     inkscape:window-height="453"
     inkscape:window-x="25"
     inkscape:window-y="25"
     inkscape:window-maximized="0" />
  <metadata
     id="metadata9290">
    <rdf:RDF>
      <cc:Work
         rdf:about="">
        <dc:format>image/svg+xml</dc:format>
        <dc:type
           rdf:resource="http://purl.org/dc/dcmitype/StillImage" />
        <dc:title></dc:title>
      </cc:Work>
    </rdf:RDF>
  </metadata>
  <g
     inkscape:label="Calque 1"
     inkscape:groupmode="layer"
     id="layer1"
     transform="translate(-321.85039,-496.892)">
    <path
       inkscape:connector-curvature="0"
       d="m 321.85039,502.71154 106.29922,0 0,-5.7454 -106.29922,0 0,5.7454 z"
       style="fill:#e63835;fill-opacity:1;fill-rule:nonzero;stroke:none"
       id="path2632" />
    <path
       inkscape:connector-curvature="0"
       d="m 321.85039,508.10739 106.29922,0 0,-5.74479 -106.29922,0 0,5.74479 z"
       style="fill:#eff2f2;fill-opacity:1;fill-rule:nonzero;stroke:none"
       id="path2634" />
    <path
       inkscape:connector-curvature="0"
       d="m 321.85039,513.50324 106.29922,0 0,-5.74479 -106.29922,0 0,5.74479 z"
       style="fill:#e63835;fill-opacity:1;fill-rule:nonzero;stroke:none"
       id="path2636" />
    <path
       inkscape:connector-curvature="0"
       d="m 321.85039,518.89909 106.29922,0 0,-5.74479 -106.29922,0 0,5.74479 z"
       style="fill:#eff2f2;fill-opacity:1;fill-rule:nonzero;stroke:none"
       id="path2638" />
    <path
       inkscape:connector-curvature="0"
       d="m 321.85039,524.29495 106.29922,0 0,-5.74357 -106.29922,0 0,5.74357 z"
       style="fill:#e63835;fill-opacity:1;fill-rule:nonzero;stroke:none"
       id="path2640" />
    <path
       inkscape:connector-curvature="0"
       d="m 321.85039,529.69237 106.29922,0 0,-5.74541 -106.29922,0 0,5.74541 z"
       style="fill:#eff2f2;fill-opacity:1;fill-rule:nonzero;stroke:none"
       id="path2642" />
    <path
       inkscape:connector-curvature="0"
       d="m 321.85039,535.08665 106.29922,0 0,-5.74541 -106.29922,0 0,5.74541 z"
       style="fill:#e63835;fill-opacity:1;fill-rule:nonzero;stroke:none"
       id="path2644" />
    <path
       inkscape:connector-curvature="0"
       d="m 321.85039,540.48407 106.29922,0 0,-5.74479 -106.29922,0 0,5.74479 z"
       style="fill:#eff2f2;fill-opacity:1;fill-rule:nonzero;stroke:none"
       id="path2646" />
    <path
       inkscape:connector-curvature="0"
       d="m 321.85039,545.87992 106.29922,0 0,-5.74479 -106.29922,0 0,5.74479 z"
       style="fill:#e63835;fill-opacity:1;fill-rule:nonzero;stroke:none"
       id="path2648" />
    <path
       inkscape:connector-curvature="0"
       d="m 321.85039,551.58985 106.29922,0 0,-5.74418 -106.29922,0 0,5.74418 z"
       style="fill:#eff2f2;fill-opacity:1;fill-rule:nonzero;stroke:none"
       id="path2650" />
    <path
       inkscape:connector-curvature="0"
       d="m 321.85039,556.98727 106.29922,0 0,-5.74664 -106.29922,0 0,5.74664 z"
       style="fill:#e63835;fill-opacity:1;fill-rule:nonzero;stroke:none"
       id="path2652" />
    <path
       inkscape:connector-curvature="0"
       d="m 321.85039,562.43652 106.29922,0 0,-5.74479 -106.29922,0 0,5.74479 z"
       style="fill:#eff2f2;fill-opacity:1;fill-rule:nonzero;stroke:none"
       id="path2654" />
    <path
       inkscape:connector-curvature="0"
       d="m 321.85039,567.83237 106.29922,0 0,-5.74541 -106.29922,0 0,5.74541 z"
       style="fill:#e63835;fill-opacity:1;fill-rule:nonzero;stroke:none"
       id="path2656" />
    <path
       inkscape:connector-curvature="0"
       d="m 321.85824,540.11817 56.06645,0 0,-43.22617 -56.06645,0 0,43.22617 z"
       style="fill:#5095d7;fill-opacity:1;fill-rule:nonzero;stroke:none"
       id="path2658" />
    <path
       inkscape:connector-curvature="0"
       d="m 349.50962,531.42922 c -6.81862,0 -12.34952,-5.52934 -12.34952,-12.34796 0,-6.82176 5.5309,-12.34796 12.34952,-12.34796 1.10713,0 2.17656,0.16018 3.19731,0.43186 -1.95827,-1.08671 -4.20706,-1.71172 -6.60348,-1.71172 -7.52372,0 -13.62625,6.10095 -13.62625,13.62782 0,7.5253 6.10253,13.62625 13.62625,13.62625 2.39642,0 4.64521,-0.62501 6.60348,-1.71015 -1.02075,0.27168 -2.09018,0.43186 -3.19731,0.43186"
       style="fill:#eac00d;fill-opacity:1;fill-rule:nonzero;stroke:none"
       id="path2660" />
    <path
       inkscape:connector-curvature="0"
       d="m 359.15966,512.33487 0.84958,3.01672 2.07762,-2.3493 -0.54336,3.08895 2.88952,-1.21705 -1.8295,2.5456 3.13292,0.16018 -2.75446,1.50129 2.75446,1.50129 -3.13292,0.15861 1.8295,2.5456 -2.88952,-1.21548 0.54336,3.08895 -2.07762,-2.35087 -0.84958,3.01828 -0.85115,-3.01828 -2.07606,2.35087 0.54179,-3.08895 -2.88952,1.21548 1.82794,-2.5456 -3.12979,-0.15861 2.75132,-1.50129 -2.75132,-1.50129 3.12979,-0.16018 -1.82794,-2.5456 2.88952,1.21705 -0.54179,-3.08895 2.07606,2.3493 0.85115,-3.01672"
       style="fill:#eac00d;fill-opacity:1;fill-rule:nonzero;stroke:none"
       id="path2662" />
  </g>
</svg>
