<?xml version="1.0" encoding="UTF-8" standalone="no"?>
<!-- Created with Inkscape (http://www.inkscape.org/) -->

<svg
   xmlns:dc="http://purl.org/dc/elements/1.1/"
   xmlns:cc="http://creativecommons.org/ns#"
   xmlns:rdf="http://www.w3.org/1999/02/22-rdf-syntax-ns#"
   xmlns:svg="http://www.w3.org/2000/svg"
   xmlns="http://www.w3.org/2000/svg"
   xmlns:sodipodi="http://sodipodi.sourceforge.net/DTD/sodipodi-0.dtd"
   xmlns:inkscape="http://www.inkscape.org/namespaces/inkscape"
   width="106.29909"
   height="70.929123"
   id="svg7857"
   version="1.1"
   inkscape:version="0.48.5 r10040"
   sodipodi:docname="Nouveau document 9">
  <defs
     id="defs7859" />
  <sodipodi:namedview
     id="base"
     pagecolor="#ffffff"
     bordercolor="#666666"
     borderopacity="1.0"
     inkscape:pageopacity="0.0"
     inkscape:pageshadow="2"
     inkscape:zoom="0.35"
     inkscape:cx="-163.27903"
     inkscape:cy="-18.821153"
     inkscape:document-units="px"
     inkscape:current-layer="layer1"
     showgrid="false"
     fit-margin-top="0"
     fit-margin-left="0"
     fit-margin-right="0"
     fit-margin-bottom="0"
     inkscape:window-width="511"
     inkscape:window-height="453"
     inkscape:window-x="25"
     inkscape:window-y="25"
     inkscape:window-maximized="0" />
  <metadata
     id="metadata7862">
    <rdf:RDF>
      <cc:Work
         rdf:about="">
        <dc:format>image/svg+xml</dc:format>
        <dc:type
           rdf:resource="http://purl.org/dc/dcmitype/StillImage" />
        <dc:title></dc:title>
      </cc:Work>
    </rdf:RDF>
  </metadata>
  <g
     inkscape:label="Calque 1"
     inkscape:groupmode="layer"
     id="layer1"
     transform="translate(-538.27903,-442.61191)">
    <path
       inkscape:connector-curvature="0"
       d="m 538.27903,450.54163 106.29909,0 0,-7.86907 -106.29909,0 0,7.86907 z"
       style="fill:#eff2f2;fill-opacity:1;fill-rule:nonzero;stroke:none"
       id="path4424" />
    <path
       inkscape:connector-curvature="0"
       d="m 538.27903,458.41196 106.29909,0 0,-7.87093 -106.29909,0 0,7.87093 z"
       style="fill:#85d1f3;fill-opacity:1;fill-rule:nonzero;stroke:none"
       id="path4426" />
    <path
       inkscape:connector-curvature="0"
       d="m 538.27903,466.28229 106.29909,0 0,-7.86969 -106.29909,0 0,7.86969 z"
       style="fill:#eff2f2;fill-opacity:1;fill-rule:nonzero;stroke:none"
       id="path4428" />
    <path
       inkscape:connector-curvature="0"
       d="m 538.27903,482.0297 106.29909,0 0,-7.86968 -106.29909,0 0,7.86968 z"
       style="fill:#eff2f2;fill-opacity:1;fill-rule:nonzero;stroke:none"
       id="path4430" />
    <path
       inkscape:connector-curvature="0"
       d="m 538.27903,474.15136 106.29909,0 0,-7.86907 -106.29909,0 0,7.86907 z"
       style="fill:#85d1f3;fill-opacity:1;fill-rule:nonzero;stroke:none"
       id="path4432" />
    <path
       inkscape:connector-curvature="0"
       d="m 538.27903,489.93491 106.29909,0 0,-7.87092 -106.29909,0 0,7.87092 z"
       style="fill:#85d1f3;fill-opacity:1;fill-rule:nonzero;stroke:none"
       id="path4434" />
    <path
       inkscape:connector-curvature="0"
       d="m 538.27903,497.80336 106.29909,0 0,-7.86846 -106.29909,0 0,7.86846 z"
       style="fill:#eff2f2;fill-opacity:1;fill-rule:nonzero;stroke:none"
       id="path4436" />
    <path
       inkscape:connector-curvature="0"
       d="m 538.27903,505.67243 106.29909,0 0,-7.86907 -106.29909,0 0,7.86907 z"
       style="fill:#85d1f3;fill-opacity:1;fill-rule:nonzero;stroke:none"
       id="path4438" />
    <path
       inkscape:connector-curvature="0"
       d="m 538.27903,513.54103 106.29909,0 0,-7.86846 -106.29909,0 0,7.86846 z"
       style="fill:#eff2f2;fill-opacity:1;fill-rule:nonzero;stroke:none"
       id="path4440" />
    <path
       inkscape:connector-curvature="0"
       d="m 538.27903,482.01745 40.89397,0 0,-39.40554 -40.89397,0 0,39.40554 z"
       style="fill:#eff2f2;fill-opacity:1;fill-rule:nonzero;stroke:none"
       id="path4442" />
    <path
       inkscape:connector-curvature="0"
       d="m 558.52599,453.60554 c -4.96825,0 -8.9969,4.02866 -8.9969,8.9966 0,4.96841 4.02865,8.99533 8.9969,8.99533 4.96826,0 8.99377,-4.02692 8.99377,-8.99533 0,-4.96794 -4.02551,-8.9966 -8.99377,-8.9966 z m 0,16.56132 c -4.17635,0 -7.56551,-3.38618 -7.56551,-7.56472 0,-4.17918 3.38916,-7.5652 7.56551,-7.5652 4.17792,0 7.56551,3.38602 7.56551,7.5652 0,4.17854 -3.38759,7.56472 -7.56551,7.56472"
       style="fill:#eac00d;fill-opacity:1;fill-rule:nonzero;stroke:none"
       id="path4444" />
    <path
       inkscape:connector-curvature="0"
       d="m 564.66168,462.60214 c 0,-3.38885 -2.74653,-6.13537 -6.13569,-6.13537 -3.38759,0 -6.13411,2.74652 -6.13411,6.13537 0,3.38868 2.74652,6.13646 6.13411,6.13646 3.38916,0 6.13569,-2.74778 6.13569,-6.13646"
       style="fill:#eac00d;fill-opacity:1;fill-rule:nonzero;stroke:none"
       id="path4446" />
  </g>
</svg>
