<?xml version="1.0" encoding="UTF-8" standalone="no"?>
<!-- Created with Inkscape (http://www.inkscape.org/) -->

<svg
   xmlns:dc="http://purl.org/dc/elements/1.1/"
   xmlns:cc="http://creativecommons.org/ns#"
   xmlns:rdf="http://www.w3.org/1999/02/22-rdf-syntax-ns#"
   xmlns:svg="http://www.w3.org/2000/svg"
   xmlns="http://www.w3.org/2000/svg"
   xmlns:sodipodi="http://sodipodi.sourceforge.net/DTD/sodipodi-0.dtd"
   xmlns:inkscape="http://www.inkscape.org/namespaces/inkscape"
   width="106.30047"
   height="70.868599"
   id="svg8388"
   version="1.1"
   inkscape:version="0.48.5 r10040"
   sodipodi:docname="Nouveau document 3">
  <defs
     id="defs8390" />
  <sodipodi:namedview
     id="base"
     pagecolor="#ffffff"
     bordercolor="#666666"
     borderopacity="1.0"
     inkscape:pageopacity="0.0"
     inkscape:pageshadow="2"
     inkscape:zoom="0.35"
     inkscape:cx="-114.70691"
     inkscape:cy="-115.99427"
     inkscape:document-units="px"
     inkscape:current-layer="layer1"
     showgrid="false"
     fit-margin-top="0"
     fit-margin-left="0"
     fit-margin-right="0"
     fit-margin-bottom="0"
     inkscape:window-width="511"
     inkscape:window-height="453"
     inkscape:window-x="100"
     inkscape:window-y="100"
     inkscape:window-maximized="0" />
  <metadata
     id="metadata8393">
    <rdf:RDF>
      <cc:Work
         rdf:about="">
        <dc:format>image/svg+xml</dc:format>
        <dc:type
           rdf:resource="http://purl.org/dc/dcmitype/StillImage" />
        <dc:title></dc:title>
      </cc:Work>
    </rdf:RDF>
  </metadata>
  <g
     inkscape:label="Calque 1"
     inkscape:groupmode="layer"
     id="layer1"
     transform="translate(-489.70691,-345.49931)">
    <path
       inkscape:connector-curvature="0"
       d="m 489.70691,416.36791 106.30047,0 0,-70.8686 -106.30047,0 0,70.8686 z"
       style="fill:#5095d7;fill-opacity:1;fill-rule:nonzero;stroke:none"
       id="path4884" />
    <path
       inkscape:connector-curvature="0"
       d="m 545.2201,365.98674 0,-9.47415 -14.93438,0 15.49972,-11.01313 -8.9355,0 -13.67808,9.7207 0,-9.7207 -11.08693,0 0,9.54482 -13.44252,-9.54482 -8.9355,0 15.49972,11.01313 -15.49972,0 0,9.47415 15.49972,0 -15.49972,11.01156 8.9355,0 13.44252,-9.54639 0,9.54639 11.08693,0 0,-9.7207 13.67808,9.7207 8.9355,0 -15.49972,-11.01156 14.93438,0"
       style="fill:#ffffff;fill-opacity:1;fill-rule:nonzero;stroke:none"
       id="path4908" />
    <path
       inkscape:connector-curvature="0"
       d="m 520.26665,357.93065 0,-12.43119 -5.29221,0 0,12.43119 -25.26753,0 0,6.63489 25.26753,0 0,12.43119 5.29221,0 0,-12.43119 24.95345,0 0,-6.63489 -24.95345,0"
       style="fill:#e63835;fill-opacity:1;fill-rule:nonzero;stroke:none"
       id="path4910" />
    <path
       inkscape:connector-curvature="0"
       d="m 512.08493,356.51259 -15.49973,-11.01313 -5.30791,0 15.49973,11.01313 5.30791,0"
       style="fill:#e63835;fill-opacity:1;fill-rule:nonzero;stroke:none"
       id="path4912" />
    <path
       inkscape:connector-curvature="0"
       d="m 491.27729,376.9983 5.30791,0 15.49973,-11.01313 -5.30791,0 -15.49973,11.01313"
       style="fill:#e63835;fill-opacity:1;fill-rule:nonzero;stroke:none"
       id="path4914" />
    <path
       inkscape:connector-curvature="0"
       d="m 523.17186,365.98517 15.49973,11.01313 5.2922,0 -15.49972,-11.01313 -5.29221,0"
       style="fill:#e63835;fill-opacity:1;fill-rule:nonzero;stroke:none"
       id="path4916" />
    <path
       inkscape:connector-curvature="0"
       d="m 543.96379,345.49946 -5.2922,0 -15.49973,11.01313 5.29221,0 15.49972,-11.01313"
       style="fill:#e63835;fill-opacity:1;fill-rule:nonzero;stroke:none"
       id="path4918" />
    <path
       inkscape:connector-curvature="0"
       d="m 518.72767,385.35904 1.36623,5.4461 5.11947,-2.31946 -3.39204,4.47246 4.99383,2.55345 -5.60628,0.13035 1.11497,5.50263 -3.59618,-4.30914 -3.61189,4.30914 1.13068,-5.50263 -5.60629,-0.13035 4.99383,-2.55345 -3.40774,-4.47246 5.11947,2.31946 1.38194,-5.4461"
       style="fill:#ffffff;fill-opacity:1;fill-rule:nonzero;stroke:none"
       id="path4920" />
    <path
       inkscape:connector-curvature="0"
       d="m 570.89594,394.07783 0.69097,2.70264 2.52832,-1.15267 -1.68031,2.22053 2.48121,1.26887 -2.77958,0.0644 0.54963,2.73091 -1.79024,-2.13887 -1.79024,2.13887 0.56534,-2.73091 -2.79529,-0.0644 2.49691,-1.26887 -1.69601,-2.22053 2.54402,1.15267 0.67527,-2.70264"
       style="fill:#ffffff;fill-opacity:1;fill-rule:nonzero;stroke:none"
       id="path4922" />
    <path
       inkscape:connector-curvature="0"
       d="m 582.64244,370.04305 0.69097,2.70421 2.54403,-1.1511 -1.69602,2.22053 2.48121,1.26573 -2.77959,0.0644 0.54964,2.73405 -1.79024,-2.14044 -1.79024,2.14044 0.54963,-2.73405 -2.77958,-0.0644 2.48121,-1.26573 -1.68032,-2.22053 2.52833,1.1511 0.69097,-2.70421"
       style="fill:#ffffff;fill-opacity:1;fill-rule:nonzero;stroke:none"
       id="path4924" />
    <path
       inkscape:connector-curvature="0"
       d="m 570.89594,359.24821 0.69097,2.70106 2.52832,-1.14952 -1.68031,2.21896 2.48121,1.26887 -2.77958,0.0628 0.54963,2.73404 -1.79024,-2.14043 -1.79024,2.14043 0.56534,-2.73404 -2.79529,-0.0628 2.49691,-1.26887 -1.69601,-2.21896 2.54402,1.14952 0.67527,-2.70106"
       style="fill:#ffffff;fill-opacity:1;fill-rule:nonzero;stroke:none"
       id="path4926" />
    <path
       inkscape:connector-curvature="0"
       d="m 557.94024,373.38798 0.67527,2.70263 2.54403,-1.15266 -1.69602,2.22053 2.49692,1.2673 -2.79529,0.066 0.54963,2.7309 -1.77454,-2.14044 -1.79024,2.14044 0.56534,-2.7309 -2.79529,-0.066 2.48121,-1.2673 -1.69601,-2.22053 2.55973,1.15266 0.67526,-2.70263"
       style="fill:#ffffff;fill-opacity:1;fill-rule:nonzero;stroke:none"
       id="path4928" />
    <path
       inkscape:connector-curvature="0"
       d="m 576.25096,380.85831 0.48682,1.46988 1.53898,0 -1.25631,0.90926 0.48682,1.46988 -1.25631,-0.90926 -1.2406,0.90926 0.47111,-1.46988 -1.25631,-0.90926 1.53898,0 0.48682,-1.46988"
       style="fill:#ffffff;fill-opacity:1;fill-rule:nonzero;stroke:none"
       id="path4930" />
  </g>
</svg>
