<?xml version="1.0" encoding="UTF-8" standalone="no"?>
<!-- Created with Inkscape (http://www.inkscape.org/) -->

<svg
   xmlns:dc="http://purl.org/dc/elements/1.1/"
   xmlns:cc="http://creativecommons.org/ns#"
   xmlns:rdf="http://www.w3.org/1999/02/22-rdf-syntax-ns#"
   xmlns:svg="http://www.w3.org/2000/svg"
   xmlns="http://www.w3.org/2000/svg"
   xmlns:sodipodi="http://sodipodi.sourceforge.net/DTD/sodipodi-0.dtd"
   xmlns:inkscape="http://www.inkscape.org/namespaces/inkscape"
   width="106.29922"
   height="70.86499"
   id="svg9441"
   version="1.1"
   inkscape:version="0.48.5 r10040"
   sodipodi:docname="Nouveau document 51">
  <defs
     id="defs9443" />
  <sodipodi:namedview
     id="base"
     pagecolor="#ffffff"
     bordercolor="#666666"
     borderopacity="1.0"
     inkscape:pageopacity="0.0"
     inkscape:pageshadow="2"
     inkscape:zoom="0.98994949"
     inkscape:cx="-91.255581"
     inkscape:cy="-13.343413"
     inkscape:document-units="px"
     inkscape:current-layer="layer1"
     showgrid="false"
     fit-margin-top="0"
     fit-margin-left="0"
     fit-margin-right="0"
     fit-margin-bottom="0"
     inkscape:window-width="511"
     inkscape:window-height="453"
     inkscape:window-x="175"
     inkscape:window-y="175"
     inkscape:window-maximized="0" />
  <metadata
     id="metadata9446">
    <rdf:RDF>
      <cc:Work
         rdf:about="">
        <dc:format>image/svg+xml</dc:format>
        <dc:type
           rdf:resource="http://purl.org/dc/dcmitype/StillImage" />
        <dc:title></dc:title>
      </cc:Work>
    </rdf:RDF>
  </metadata>
  <g
     inkscape:label="Calque 1"
     inkscape:groupmode="layer"
     id="layer1"
     transform="translate(-286.89602,-313.92897)">
    <path
       inkscape:connector-curvature="0"
       d="m 286.89602,384.79396 106.29922,0 0,-70.86499 -106.29922,0 0,70.86499 z"
       style="fill:#e63835;fill-opacity:1;fill-rule:nonzero;stroke:none"
       id="path692" />
    <path
       inkscape:connector-curvature="0"
       d="m 303.47146,322.25956 2.20326,6.78722 7.13427,0 -5.77118,4.19136 2.20483,6.78564 -5.77118,-4.19293 -5.77117,4.19293 2.20325,-6.78564 -5.77117,-4.19136 7.1327,0 2.20639,-6.78722"
       style="fill:#eac00d;fill-opacity:1;fill-rule:nonzero;stroke:none"
       id="path694" />
    <path
       inkscape:connector-curvature="0"
       d="m 321.80417,319.36534 0.85429,2.6304 2.76388,0 -2.23466,1.62692 0.85429,2.62883 -2.2378,-1.62535 -2.23624,1.62535 0.85272,-2.62883 -2.23623,-1.62692 2.76545,0 0.8543,-2.6304"
       style="fill:#eac00d;fill-opacity:1;fill-rule:nonzero;stroke:none"
       id="path696" />
    <path
       inkscape:connector-curvature="0"
       d="m 322.95526,330.31879 0.85272,2.63197 2.76545,0 -2.23623,1.62378 0.85429,2.6304 -2.23623,-1.62535 -2.2378,1.62535 0.85272,-2.6304 -2.23466,-1.62378 2.76388,0 0.85586,-2.63197"
       style="fill:#eac00d;fill-opacity:1;fill-rule:nonzero;stroke:none"
       id="path698" />
    <path
       inkscape:connector-curvature="0"
       d="m 318.13574,341.91767 0.85429,2.63197 2.76702,0 -2.2378,1.62535 0.85272,2.62883 -2.23623,-1.62535 -2.2378,1.62535 0.85586,-2.62883 -2.2378,-1.62535 2.76545,0 0.85429,-2.63197"
       style="fill:#eac00d;fill-opacity:1;fill-rule:nonzero;stroke:none"
       id="path700" />
    <path
       inkscape:connector-curvature="0"
       d="m 307.87483,348.61066 0.85429,2.6304 2.76702,0 -2.2378,1.62535 0.85272,2.6304 -2.23623,-1.62535 -2.2378,1.62535 0.85429,-2.6304 -2.23623,-1.62535 2.76545,0 0.85429,-2.6304"
       style="fill:#eac00d;fill-opacity:1;fill-rule:nonzero;stroke:none"
       id="path702" />
  </g>
</svg>
