<?xml version="1.0" encoding="UTF-8" standalone="no"?>
<!-- Created with Inkscape (http://www.inkscape.org/) -->

<svg
   xmlns:dc="http://purl.org/dc/elements/1.1/"
   xmlns:cc="http://creativecommons.org/ns#"
   xmlns:rdf="http://www.w3.org/1999/02/22-rdf-syntax-ns#"
   xmlns:svg="http://www.w3.org/2000/svg"
   xmlns="http://www.w3.org/2000/svg"
   xmlns:sodipodi="http://sodipodi.sourceforge.net/DTD/sodipodi-0.dtd"
   xmlns:inkscape="http://www.inkscape.org/namespaces/inkscape"
   width="106.29984"
   height="70.869392"
   id="svg9019"
   version="1.1"
   inkscape:version="0.48.5 r10040"
   sodipodi:docname="Nouveau document 37">
  <defs
     id="defs9021" />
  <sodipodi:namedview
     id="base"
     pagecolor="#ffffff"
     bordercolor="#666666"
     borderopacity="1.0"
     inkscape:pageopacity="0.0"
     inkscape:pageshadow="2"
     inkscape:zoom="0.35"
     inkscape:cx="-14.70722"
     inkscape:cy="-270.27959"
     inkscape:document-units="px"
     inkscape:current-layer="layer1"
     showgrid="false"
     fit-margin-top="0"
     fit-margin-left="0"
     fit-margin-right="0"
     fit-margin-bottom="0"
     inkscape:window-width="511"
     inkscape:window-height="453"
     inkscape:window-x="75"
     inkscape:window-y="75"
     inkscape:window-maximized="0" />
  <metadata
     id="metadata9024">
    <rdf:RDF>
      <cc:Work
         rdf:about="">
        <dc:format>image/svg+xml</dc:format>
        <dc:type
           rdf:resource="http://purl.org/dc/dcmitype/StillImage" />
        <dc:title></dc:title>
      </cc:Work>
    </rdf:RDF>
  </metadata>
  <g
     inkscape:label="Calque 1"
     inkscape:groupmode="layer"
     id="layer1"
     transform="translate(-389.70722,-191.2132)">
    <path
       inkscape:connector-curvature="0"
       d="m 389.70722,196.66967 106.29984,0 0,-5.45587 -106.29984,0 0,5.45587 z"
       style="fill:#e63835;fill-opacity:1;fill-rule:nonzero;stroke:none"
       id="path4402" />
    <path
       inkscape:connector-curvature="0"
       d="m 389.70722,202.12677 106.29984,0 0,-5.45771 -106.29984,0 0,5.45771 z"
       style="fill:#eff2f2;fill-opacity:1;fill-rule:nonzero;stroke:none"
       id="path4404" />
    <path
       inkscape:connector-curvature="0"
       d="m 389.70722,207.58072 106.29984,0 0,-5.45648 -106.29984,0 0,5.45648 z"
       style="fill:#e63835;fill-opacity:1;fill-rule:nonzero;stroke:none"
       id="path4406" />
    <path
       inkscape:connector-curvature="0"
       d="m 389.70722,218.49963 106.29984,0 0,-5.45649 -106.29984,0 0,5.45649 z"
       style="fill:#e63835;fill-opacity:1;fill-rule:nonzero;stroke:none"
       id="path4408" />
    <path
       inkscape:connector-curvature="0"
       d="m 389.70722,213.03625 106.29984,0 0,-5.45587 -106.29984,0 0,5.45587 z"
       style="fill:#eff2f2;fill-opacity:1;fill-rule:nonzero;stroke:none"
       id="path4410" />
    <path
       inkscape:connector-curvature="0"
       d="m 389.70722,223.97871 106.29984,0 0,-5.45465 -106.29984,0 0,5.45465 z"
       style="fill:#eff2f2;fill-opacity:1;fill-rule:nonzero;stroke:none"
       id="path4412" />
    <path
       inkscape:connector-curvature="0"
       d="m 389.70722,229.43424 106.29984,0 0,-5.45649 -106.29984,0 0,5.45649 z"
       style="fill:#e63835;fill-opacity:1;fill-rule:nonzero;stroke:none"
       id="path4414" />
    <path
       inkscape:connector-curvature="0"
       d="m 389.70722,234.8929 106.29984,0 0,-5.45771 -106.29984,0 0,5.45771 z"
       style="fill:#eff2f2;fill-opacity:1;fill-rule:nonzero;stroke:none"
       id="path4416" />
    <path
       inkscape:connector-curvature="0"
       d="m 389.70722,245.81024 106.29984,0 0,-5.45588 -106.29984,0 0,5.45588 z"
       style="fill:#eff2f2;fill-opacity:1;fill-rule:nonzero;stroke:none"
       id="path4418" />
    <path
       inkscape:connector-curvature="0"
       d="m 389.70722,240.34529 106.29984,0 0,-5.45465 -106.29984,0 0,5.45465 z"
       style="fill:#e63835;fill-opacity:1;fill-rule:nonzero;stroke:none"
       id="path4420" />
    <path
       inkscape:connector-curvature="0"
       d="m 389.70722,251.16369 106.29984,0 0,-5.45649 -106.29984,0 0,5.45649 z"
       style="fill:#e63835;fill-opacity:1;fill-rule:nonzero;stroke:none"
       id="path4422" />
    <path
       inkscape:connector-curvature="0"
       d="m 389.70722,262.08259 106.29984,0 0,-5.45709 -106.29984,0 0,5.45709 z"
       style="fill:#e63835;fill-opacity:1;fill-rule:nonzero;stroke:none"
       id="path4424" />
    <path
       inkscape:connector-curvature="0"
       d="m 389.70722,256.62078 106.29984,0 0,-5.45709 -106.29984,0 0,5.45709 z"
       style="fill:#eff2f2;fill-opacity:1;fill-rule:nonzero;stroke:none"
       id="path4426" />
    <path
       inkscape:connector-curvature="0"
       d="m 389.70722,229.362 51.12224,0 0,-38.1488 -51.12224,0 0,38.1488 z"
       style="fill:#5095d7;fill-opacity:1;fill-rule:nonzero;stroke:none"
       id="path4428" />
    <path
       inkscape:connector-curvature="0"
       d="m 396.47245,195.9787 c 0,0.65171 -0.53079,1.17936 -1.1825,1.17936 -0.65171,0 -1.17936,-0.52765 -1.17936,-1.17936 0,-0.65328 0.52765,-1.18093 1.17936,-1.18093 0.65171,0 1.1825,0.52765 1.1825,1.18093"
       style="fill:#eff2f2;fill-opacity:1;fill-rule:nonzero;stroke:none"
       id="path4430" />
    <path
       inkscape:connector-curvature="0"
       d="m 404.22388,195.9787 c 0,0.65171 -0.52765,1.17936 -1.18093,1.17936 -0.65171,0 -1.18093,-0.52765 -1.18093,-1.17936 0,-0.65328 0.52922,-1.18093 1.18093,-1.18093 0.65328,0 1.18093,0.52765 1.18093,1.18093"
       style="fill:#eff2f2;fill-opacity:1;fill-rule:nonzero;stroke:none"
       id="path4432" />
    <path
       inkscape:connector-curvature="0"
       d="m 412.48255,195.9787 c 0,0.65171 -0.53079,1.17936 -1.1825,1.17936 -0.65171,0 -1.17779,-0.52765 -1.17779,-1.17936 0,-0.65328 0.52608,-1.18093 1.17779,-1.18093 0.65171,0 1.1825,0.52765 1.1825,1.18093"
       style="fill:#eff2f2;fill-opacity:1;fill-rule:nonzero;stroke:none"
       id="path4434" />
    <path
       inkscape:connector-curvature="0"
       d="m 420.34548,195.9787 c 0,0.65171 -0.52922,1.17936 -1.18093,1.17936 -0.65171,0 -1.17936,-0.52765 -1.17936,-1.17936 0,-0.65328 0.52765,-1.18093 1.17936,-1.18093 0.65171,0 1.18093,0.52765 1.18093,1.18093"
       style="fill:#eff2f2;fill-opacity:1;fill-rule:nonzero;stroke:none"
       id="path4436" />
    <path
       inkscape:connector-curvature="0"
       d="m 428.60572,195.9787 c 0,0.65171 -0.52922,1.17936 -1.1825,1.17936 -0.65171,0 -1.17936,-0.52765 -1.17936,-1.17936 0,-0.65328 0.52765,-1.18093 1.17936,-1.18093 0.65328,0 1.1825,0.52765 1.1825,1.18093"
       style="fill:#eff2f2;fill-opacity:1;fill-rule:nonzero;stroke:none"
       id="path4438" />
    <path
       inkscape:connector-curvature="0"
       d="m 436.35715,195.9787 c 0,0.65171 -0.52765,1.17936 -1.18093,1.17936 -0.65328,0 -1.18093,-0.52765 -1.18093,-1.17936 0,-0.65328 0.52765,-1.18093 1.18093,-1.18093 0.65328,0 1.18093,0.52765 1.18093,1.18093"
       style="fill:#eff2f2;fill-opacity:1;fill-rule:nonzero;stroke:none"
       id="path4440" />
    <path
       inkscape:connector-curvature="0"
       d="m 400.6277,199.35032 c 0,0.65328 -0.52765,1.17936 -1.17936,1.17936 -0.65171,0 -1.18251,-0.52608 -1.18251,-1.17936 0,-0.65328 0.5308,-1.18093 1.18251,-1.18093 0.65171,0 1.17936,0.52765 1.17936,1.18093"
       style="fill:#eff2f2;fill-opacity:1;fill-rule:nonzero;stroke:none"
       id="path4442" />
    <path
       inkscape:connector-curvature="0"
       d="m 408.88637,199.35032 c 0,0.65328 -0.52766,1.17936 -1.17937,1.17936 -0.65171,0 -1.18093,-0.52608 -1.18093,-1.17936 0,-0.65328 0.52922,-1.18093 1.18093,-1.18093 0.65171,0 1.17937,0.52765 1.17937,1.18093"
       style="fill:#eff2f2;fill-opacity:1;fill-rule:nonzero;stroke:none"
       id="path4444" />
    <path
       inkscape:connector-curvature="0"
       d="m 416.7493,199.35032 c 0,0.65328 -0.52765,1.17936 -1.1778,1.17936 -0.65328,0 -1.1825,-0.52608 -1.1825,-1.17936 0,-0.65328 0.52922,-1.18093 1.1825,-1.18093 0.65015,0 1.1778,0.52765 1.1778,1.18093"
       style="fill:#eff2f2;fill-opacity:1;fill-rule:nonzero;stroke:none"
       id="path4446" />
    <path
       inkscape:connector-curvature="0"
       d="m 425.00953,199.35032 c 0,0.65328 -0.52922,1.17936 -1.1825,1.17936 -0.64857,0 -1.17779,-0.52608 -1.17779,-1.17936 0,-0.65328 0.52922,-1.18093 1.17779,-1.18093 0.65328,0 1.1825,0.52765 1.1825,1.18093"
       style="fill:#eff2f2;fill-opacity:1;fill-rule:nonzero;stroke:none"
       id="path4448" />
    <path
       inkscape:connector-curvature="0"
       d="m 432.76097,199.35032 c 0,0.65328 -0.52765,1.17936 -1.17936,1.17936 -0.65172,0 -1.18094,-0.52608 -1.18094,-1.17936 0,-0.65328 0.52922,-1.18093 1.18094,-1.18093 0.65171,0 1.17936,0.52765 1.17936,1.18093"
       style="fill:#eff2f2;fill-opacity:1;fill-rule:nonzero;stroke:none"
       id="path4450" />
    <path
       inkscape:connector-curvature="0"
       d="m 396.47245,203.11297 c 0,0.65171 -0.53079,1.17936 -1.1825,1.17936 -0.65171,0 -1.17936,-0.52765 -1.17936,-1.17936 0,-0.65171 0.52765,-1.18093 1.17936,-1.18093 0.65171,0 1.1825,0.52922 1.1825,1.18093"
       style="fill:#eff2f2;fill-opacity:1;fill-rule:nonzero;stroke:none"
       id="path4452" />
    <path
       inkscape:connector-curvature="0"
       d="m 404.22388,203.11297 c 0,0.65171 -0.52765,1.17936 -1.18093,1.17936 -0.65171,0 -1.18093,-0.52765 -1.18093,-1.17936 0,-0.65171 0.52922,-1.18093 1.18093,-1.18093 0.65328,0 1.18093,0.52922 1.18093,1.18093"
       style="fill:#eff2f2;fill-opacity:1;fill-rule:nonzero;stroke:none"
       id="path4454" />
    <path
       inkscape:connector-curvature="0"
       d="m 412.48255,203.11297 c 0,0.65171 -0.53079,1.17936 -1.1825,1.17936 -0.65171,0 -1.17779,-0.52765 -1.17779,-1.17936 0,-0.65171 0.52608,-1.18093 1.17779,-1.18093 0.65171,0 1.1825,0.52922 1.1825,1.18093"
       style="fill:#eff2f2;fill-opacity:1;fill-rule:nonzero;stroke:none"
       id="path4456" />
    <path
       inkscape:connector-curvature="0"
       d="m 420.34548,203.11297 c 0,0.65171 -0.52922,1.17936 -1.18093,1.17936 -0.65171,0 -1.17936,-0.52765 -1.17936,-1.17936 0,-0.65171 0.52765,-1.18093 1.17936,-1.18093 0.65171,0 1.18093,0.52922 1.18093,1.18093"
       style="fill:#eff2f2;fill-opacity:1;fill-rule:nonzero;stroke:none"
       id="path4458" />
    <path
       inkscape:connector-curvature="0"
       d="m 428.60572,203.11297 c 0,0.65171 -0.52922,1.17936 -1.1825,1.17936 -0.65171,0 -1.17936,-0.52765 -1.17936,-1.17936 0,-0.65171 0.52765,-1.18093 1.17936,-1.18093 0.65328,0 1.1825,0.52922 1.1825,1.18093"
       style="fill:#eff2f2;fill-opacity:1;fill-rule:nonzero;stroke:none"
       id="path4460" />
    <path
       inkscape:connector-curvature="0"
       d="m 436.35715,203.11297 c 0,0.65171 -0.52765,1.17936 -1.18093,1.17936 -0.65328,0 -1.18093,-0.52765 -1.18093,-1.17936 0,-0.65171 0.52765,-1.18093 1.18093,-1.18093 0.65328,0 1.18093,0.52922 1.18093,1.18093"
       style="fill:#eff2f2;fill-opacity:1;fill-rule:nonzero;stroke:none"
       id="path4462" />
    <path
       inkscape:connector-curvature="0"
       d="m 400.6277,206.48459 c 0,0.65171 -0.52765,1.17936 -1.17936,1.17936 -0.65171,0 -1.18251,-0.52765 -1.18251,-1.17936 0,-0.65328 0.5308,-1.18093 1.18251,-1.18093 0.65171,0 1.17936,0.52765 1.17936,1.18093"
       style="fill:#eff2f2;fill-opacity:1;fill-rule:nonzero;stroke:none"
       id="path4464" />
    <path
       inkscape:connector-curvature="0"
       d="m 408.88637,206.48459 c 0,0.65171 -0.52766,1.17936 -1.17937,1.17936 -0.65171,0 -1.18093,-0.52765 -1.18093,-1.17936 0,-0.65328 0.52922,-1.18093 1.18093,-1.18093 0.65171,0 1.17937,0.52765 1.17937,1.18093"
       style="fill:#eff2f2;fill-opacity:1;fill-rule:nonzero;stroke:none"
       id="path4466" />
    <path
       inkscape:connector-curvature="0"
       d="m 416.7493,206.48459 c 0,0.65171 -0.52765,1.17936 -1.1778,1.17936 -0.65328,0 -1.1825,-0.52765 -1.1825,-1.17936 0,-0.65328 0.52922,-1.18093 1.1825,-1.18093 0.65015,0 1.1778,0.52765 1.1778,1.18093"
       style="fill:#eff2f2;fill-opacity:1;fill-rule:nonzero;stroke:none"
       id="path4468" />
    <path
       inkscape:connector-curvature="0"
       d="m 425.00953,206.48459 c 0,0.65171 -0.52922,1.17936 -1.1825,1.17936 -0.64857,0 -1.17779,-0.52765 -1.17779,-1.17936 0,-0.65328 0.52922,-1.18093 1.17779,-1.18093 0.65328,0 1.1825,0.52765 1.1825,1.18093"
       style="fill:#eff2f2;fill-opacity:1;fill-rule:nonzero;stroke:none"
       id="path4470" />
    <path
       inkscape:connector-curvature="0"
       d="m 432.76097,206.48459 c 0,0.65171 -0.52765,1.17936 -1.17936,1.17936 -0.65172,0 -1.18094,-0.52765 -1.18094,-1.17936 0,-0.65328 0.52922,-1.18093 1.18094,-1.18093 0.65171,0 1.17936,0.52765 1.17936,1.18093"
       style="fill:#eff2f2;fill-opacity:1;fill-rule:nonzero;stroke:none"
       id="path4472" />
    <path
       inkscape:connector-curvature="0"
       d="m 396.47245,210.24724 c 0,0.65171 -0.53079,1.17936 -1.1825,1.17936 -0.65171,0 -1.17936,-0.52765 -1.17936,-1.17936 0,-0.65485 0.52765,-1.18093 1.17936,-1.18093 0.65171,0 1.1825,0.52608 1.1825,1.18093"
       style="fill:#eff2f2;fill-opacity:1;fill-rule:nonzero;stroke:none"
       id="path4474" />
    <path
       inkscape:connector-curvature="0"
       d="m 404.22388,210.24724 c 0,0.65171 -0.52765,1.17936 -1.18093,1.17936 -0.65171,0 -1.18093,-0.52765 -1.18093,-1.17936 0,-0.65485 0.52922,-1.18093 1.18093,-1.18093 0.65328,0 1.18093,0.52608 1.18093,1.18093"
       style="fill:#eff2f2;fill-opacity:1;fill-rule:nonzero;stroke:none"
       id="path4476" />
    <path
       inkscape:connector-curvature="0"
       d="m 412.48255,210.24724 c 0,0.65171 -0.53079,1.17936 -1.1825,1.17936 -0.65171,0 -1.17779,-0.52765 -1.17779,-1.17936 0,-0.65485 0.52608,-1.18093 1.17779,-1.18093 0.65171,0 1.1825,0.52608 1.1825,1.18093"
       style="fill:#eff2f2;fill-opacity:1;fill-rule:nonzero;stroke:none"
       id="path4478" />
    <path
       inkscape:connector-curvature="0"
       d="m 420.34548,210.24724 c 0,0.65171 -0.52922,1.17936 -1.18093,1.17936 -0.65171,0 -1.17936,-0.52765 -1.17936,-1.17936 0,-0.65485 0.52765,-1.18093 1.17936,-1.18093 0.65171,0 1.18093,0.52608 1.18093,1.18093"
       style="fill:#eff2f2;fill-opacity:1;fill-rule:nonzero;stroke:none"
       id="path4480" />
    <path
       inkscape:connector-curvature="0"
       d="m 428.60572,210.24724 c 0,0.65171 -0.52922,1.17936 -1.1825,1.17936 -0.65171,0 -1.17936,-0.52765 -1.17936,-1.17936 0,-0.65485 0.52765,-1.18093 1.17936,-1.18093 0.65328,0 1.1825,0.52608 1.1825,1.18093"
       style="fill:#eff2f2;fill-opacity:1;fill-rule:nonzero;stroke:none"
       id="path4482" />
    <path
       inkscape:connector-curvature="0"
       d="m 436.35715,210.24724 c 0,0.65171 -0.52765,1.17936 -1.18093,1.17936 -0.65328,0 -1.18093,-0.52765 -1.18093,-1.17936 0,-0.65485 0.52765,-1.18093 1.18093,-1.18093 0.65328,0 1.18093,0.52608 1.18093,1.18093"
       style="fill:#eff2f2;fill-opacity:1;fill-rule:nonzero;stroke:none"
       id="path4484" />
    <path
       inkscape:connector-curvature="0"
       d="m 400.6277,213.61886 c 0,0.65328 -0.52765,1.17936 -1.17936,1.17936 -0.65171,0 -1.18251,-0.52608 -1.18251,-1.17936 0,-0.65328 0.5308,-1.18093 1.18251,-1.18093 0.65171,0 1.17936,0.52765 1.17936,1.18093"
       style="fill:#eff2f2;fill-opacity:1;fill-rule:nonzero;stroke:none"
       id="path4486" />
    <path
       inkscape:connector-curvature="0"
       d="m 408.88637,213.61886 c 0,0.65328 -0.52766,1.17936 -1.17937,1.17936 -0.65171,0 -1.18093,-0.52608 -1.18093,-1.17936 0,-0.65328 0.52922,-1.18093 1.18093,-1.18093 0.65171,0 1.17937,0.52765 1.17937,1.18093"
       style="fill:#eff2f2;fill-opacity:1;fill-rule:nonzero;stroke:none"
       id="path4488" />
    <path
       inkscape:connector-curvature="0"
       d="m 416.7493,213.61886 c 0,0.65328 -0.52765,1.17936 -1.1778,1.17936 -0.65328,0 -1.1825,-0.52608 -1.1825,-1.17936 0,-0.65328 0.52922,-1.18093 1.1825,-1.18093 0.65015,0 1.1778,0.52765 1.1778,1.18093"
       style="fill:#eff2f2;fill-opacity:1;fill-rule:nonzero;stroke:none"
       id="path4490" />
    <path
       inkscape:connector-curvature="0"
       d="m 425.00953,213.61886 c 0,0.65328 -0.52922,1.17936 -1.1825,1.17936 -0.64857,0 -1.17779,-0.52608 -1.17779,-1.17936 0,-0.65328 0.52922,-1.18093 1.17779,-1.18093 0.65328,0 1.1825,0.52765 1.1825,1.18093"
       style="fill:#eff2f2;fill-opacity:1;fill-rule:nonzero;stroke:none"
       id="path4492" />
    <path
       inkscape:connector-curvature="0"
       d="m 432.76097,213.61886 c 0,0.65328 -0.52765,1.17936 -1.17936,1.17936 -0.65172,0 -1.18094,-0.52608 -1.18094,-1.17936 0,-0.65328 0.52922,-1.18093 1.18094,-1.18093 0.65171,0 1.17936,0.52765 1.17936,1.18093"
       style="fill:#eff2f2;fill-opacity:1;fill-rule:nonzero;stroke:none"
       id="path4494" />
    <path
       inkscape:connector-curvature="0"
       d="m 396.47245,217.38151 c 0,0.65171 -0.53079,1.17936 -1.1825,1.17936 -0.65171,0 -1.17936,-0.52765 -1.17936,-1.17936 0,-0.65328 0.52765,-1.17936 1.17936,-1.17936 0.65171,0 1.1825,0.52608 1.1825,1.17936"
       style="fill:#eff2f2;fill-opacity:1;fill-rule:nonzero;stroke:none"
       id="path4496" />
    <path
       inkscape:connector-curvature="0"
       d="m 404.22388,217.38151 c 0,0.65171 -0.52765,1.17936 -1.18093,1.17936 -0.65171,0 -1.18093,-0.52765 -1.18093,-1.17936 0,-0.65328 0.52922,-1.17936 1.18093,-1.17936 0.65328,0 1.18093,0.52608 1.18093,1.17936"
       style="fill:#eff2f2;fill-opacity:1;fill-rule:nonzero;stroke:none"
       id="path4498" />
    <path
       inkscape:connector-curvature="0"
       d="m 412.48255,217.38151 c 0,0.65171 -0.53079,1.17936 -1.1825,1.17936 -0.65171,0 -1.17779,-0.52765 -1.17779,-1.17936 0,-0.65328 0.52608,-1.17936 1.17779,-1.17936 0.65171,0 1.1825,0.52608 1.1825,1.17936"
       style="fill:#eff2f2;fill-opacity:1;fill-rule:nonzero;stroke:none"
       id="path4500" />
    <path
       inkscape:connector-curvature="0"
       d="m 420.34548,217.38151 c 0,0.65171 -0.52922,1.17936 -1.18093,1.17936 -0.65171,0 -1.17936,-0.52765 -1.17936,-1.17936 0,-0.65328 0.52765,-1.17936 1.17936,-1.17936 0.65171,0 1.18093,0.52608 1.18093,1.17936"
       style="fill:#eff2f2;fill-opacity:1;fill-rule:nonzero;stroke:none"
       id="path4502" />
    <path
       inkscape:connector-curvature="0"
       d="m 428.60572,217.38151 c 0,0.65171 -0.52922,1.17936 -1.1825,1.17936 -0.65171,0 -1.17936,-0.52765 -1.17936,-1.17936 0,-0.65328 0.52765,-1.17936 1.17936,-1.17936 0.65328,0 1.1825,0.52608 1.1825,1.17936"
       style="fill:#eff2f2;fill-opacity:1;fill-rule:nonzero;stroke:none"
       id="path4504" />
    <path
       inkscape:connector-curvature="0"
       d="m 436.35715,217.38151 c 0,0.65171 -0.52765,1.17936 -1.18093,1.17936 -0.65328,0 -1.18093,-0.52765 -1.18093,-1.17936 0,-0.65328 0.52765,-1.17936 1.18093,-1.17936 0.65328,0 1.18093,0.52608 1.18093,1.17936"
       style="fill:#eff2f2;fill-opacity:1;fill-rule:nonzero;stroke:none"
       id="path4506" />
    <path
       inkscape:connector-curvature="0"
       d="m 400.6277,220.75156 c 0,0.65485 -0.52765,1.18251 -1.17936,1.18251 -0.65171,0 -1.18251,-0.52766 -1.18251,-1.18251 0,-0.65171 0.5308,-1.17936 1.18251,-1.17936 0.65171,0 1.17936,0.52765 1.17936,1.17936"
       style="fill:#eff2f2;fill-opacity:1;fill-rule:nonzero;stroke:none"
       id="path4508" />
    <path
       inkscape:connector-curvature="0"
       d="m 408.88637,220.75156 c 0,0.65485 -0.52766,1.18251 -1.17937,1.18251 -0.65171,0 -1.18093,-0.52766 -1.18093,-1.18251 0,-0.65171 0.52922,-1.17936 1.18093,-1.17936 0.65171,0 1.17937,0.52765 1.17937,1.17936"
       style="fill:#eff2f2;fill-opacity:1;fill-rule:nonzero;stroke:none"
       id="path4510" />
    <path
       inkscape:connector-curvature="0"
       d="m 416.7493,220.75156 c 0,0.65485 -0.52765,1.18251 -1.1778,1.18251 -0.65328,0 -1.1825,-0.52766 -1.1825,-1.18251 0,-0.65171 0.52922,-1.17936 1.1825,-1.17936 0.65015,0 1.1778,0.52765 1.1778,1.17936"
       style="fill:#eff2f2;fill-opacity:1;fill-rule:nonzero;stroke:none"
       id="path4512" />
    <path
       inkscape:connector-curvature="0"
       d="m 425.00953,220.75156 c 0,0.65485 -0.52922,1.18251 -1.1825,1.18251 -0.64857,0 -1.17779,-0.52766 -1.17779,-1.18251 0,-0.65171 0.52922,-1.17936 1.17779,-1.17936 0.65328,0 1.1825,0.52765 1.1825,1.17936"
       style="fill:#eff2f2;fill-opacity:1;fill-rule:nonzero;stroke:none"
       id="path4514" />
    <path
       inkscape:connector-curvature="0"
       d="m 432.76097,220.75156 c 0,0.65485 -0.52765,1.18251 -1.17936,1.18251 -0.65172,0 -1.18094,-0.52766 -1.18094,-1.18251 0,-0.65171 0.52922,-1.17936 1.18094,-1.17936 0.65171,0 1.17936,0.52765 1.17936,1.17936"
       style="fill:#eff2f2;fill-opacity:1;fill-rule:nonzero;stroke:none"
       id="path4516" />
    <path
       inkscape:connector-curvature="0"
       d="m 396.47245,224.51421 c 0,0.65328 -0.53079,1.18093 -1.1825,1.18093 -0.65171,0 -1.17936,-0.52765 -1.17936,-1.18093 0,-0.65171 0.52765,-1.17936 1.17936,-1.17936 0.65171,0 1.1825,0.52765 1.1825,1.17936"
       style="fill:#eff2f2;fill-opacity:1;fill-rule:nonzero;stroke:none"
       id="path4518" />
    <path
       inkscape:connector-curvature="0"
       d="m 404.22388,224.51421 c 0,0.65328 -0.52765,1.18093 -1.18093,1.18093 -0.65171,0 -1.18093,-0.52765 -1.18093,-1.18093 0,-0.65171 0.52922,-1.17936 1.18093,-1.17936 0.65328,0 1.18093,0.52765 1.18093,1.17936"
       style="fill:#eff2f2;fill-opacity:1;fill-rule:nonzero;stroke:none"
       id="path4520" />
    <path
       inkscape:connector-curvature="0"
       d="m 412.48255,224.51421 c 0,0.65328 -0.53079,1.18093 -1.1825,1.18093 -0.65171,0 -1.17779,-0.52765 -1.17779,-1.18093 0,-0.65171 0.52608,-1.17936 1.17779,-1.17936 0.65171,0 1.1825,0.52765 1.1825,1.17936"
       style="fill:#eff2f2;fill-opacity:1;fill-rule:nonzero;stroke:none"
       id="path4522" />
    <path
       inkscape:connector-curvature="0"
       d="m 420.34548,224.51421 c 0,0.65328 -0.52922,1.18093 -1.18093,1.18093 -0.65171,0 -1.17936,-0.52765 -1.17936,-1.18093 0,-0.65171 0.52765,-1.17936 1.17936,-1.17936 0.65171,0 1.18093,0.52765 1.18093,1.17936"
       style="fill:#eff2f2;fill-opacity:1;fill-rule:nonzero;stroke:none"
       id="path4524" />
    <path
       inkscape:connector-curvature="0"
       d="m 428.60572,224.51421 c 0,0.65328 -0.52922,1.18093 -1.1825,1.18093 -0.65171,0 -1.17936,-0.52765 -1.17936,-1.18093 0,-0.65171 0.52765,-1.17936 1.17936,-1.17936 0.65328,0 1.1825,0.52765 1.1825,1.17936"
       style="fill:#eff2f2;fill-opacity:1;fill-rule:nonzero;stroke:none"
       id="path4526" />
    <path
       inkscape:connector-curvature="0"
       d="m 436.35715,224.51421 c 0,0.65328 -0.52765,1.18093 -1.18093,1.18093 -0.65328,0 -1.18093,-0.52765 -1.18093,-1.18093 0,-0.65171 0.52765,-1.17936 1.18093,-1.17936 0.65328,0 1.18093,0.52765 1.18093,1.17936"
       style="fill:#eff2f2;fill-opacity:1;fill-rule:nonzero;stroke:none"
       id="path4528" />
  </g>
</svg>
