<?xml version="1.0" encoding="UTF-8" standalone="no"?>
<!-- Created with Inkscape (http://www.inkscape.org/) -->

<svg
   xmlns:dc="http://purl.org/dc/elements/1.1/"
   xmlns:cc="http://creativecommons.org/ns#"
   xmlns:rdf="http://www.w3.org/1999/02/22-rdf-syntax-ns#"
   xmlns:svg="http://www.w3.org/2000/svg"
   xmlns="http://www.w3.org/2000/svg"
   xmlns:sodipodi="http://sodipodi.sourceforge.net/DTD/sodipodi-0.dtd"
   xmlns:inkscape="http://www.inkscape.org/namespaces/inkscape"
   width="106.30047"
   height="70.869392"
   id="svg8584"
   version="1.1"
   inkscape:version="0.48.5 r10040"
   sodipodi:docname="Nouveau document 15">
  <defs
     id="defs8586" />
  <sodipodi:namedview
     id="base"
     pagecolor="#ffffff"
     bordercolor="#666666"
     borderopacity="1.0"
     inkscape:pageopacity="0.0"
     inkscape:pageshadow="2"
     inkscape:zoom="0.35"
     inkscape:cx="-23.27834"
     inkscape:cy="49.720407"
     inkscape:document-units="px"
     inkscape:current-layer="layer1"
     showgrid="false"
     fit-margin-top="0"
     fit-margin-left="0"
     fit-margin-right="0"
     fit-margin-bottom="0"
     inkscape:window-width="511"
     inkscape:window-height="453"
     inkscape:window-x="25"
     inkscape:window-y="25"
     inkscape:window-maximized="0" />
  <metadata
     id="metadata8589">
    <rdf:RDF>
      <cc:Work
         rdf:about="">
        <dc:format>image/svg+xml</dc:format>
        <dc:type
           rdf:resource="http://purl.org/dc/dcmitype/StillImage" />
        <dc:title></dc:title>
      </cc:Work>
    </rdf:RDF>
  </metadata>
  <g
     inkscape:label="Calque 1"
     inkscape:groupmode="layer"
     id="layer1"
     transform="translate(-398.27834,-511.2132)">
    <path
       inkscape:connector-curvature="0"
       d="m 398.27834,534.87203 106.30047,0 0,-23.65883 -106.30047,0 0,23.65883 z"
       style="fill:#eac00d;fill-opacity:1;fill-rule:nonzero;stroke:none"
       id="path4590" />
    <path
       inkscape:connector-curvature="0"
       d="m 398.27834,558.42156 106.30047,0 0,-23.65757 -106.30047,0 0,23.65757 z"
       style="fill:#5095d7;fill-opacity:1;fill-rule:nonzero;stroke:none"
       id="path4592" />
    <path
       inkscape:connector-curvature="0"
       d="m 398.27834,582.08259 106.30047,0 0,-23.65757 -106.30047,0 0,23.65757 z"
       style="fill:#e63835;fill-opacity:1;fill-rule:nonzero;stroke:none"
       id="path4594" />
    <path
       inkscape:connector-curvature="0"
       d="m 435.05367,552.00025 c 0,-0.97521 -0.8009,-1.76983 -1.77454,-1.76983 -0.97521,0 -1.77611,0.79462 -1.77611,1.76983 0,0.97992 0.8009,1.77297 1.77611,1.77297 0.97364,0 1.77454,-0.79305 1.77454,-1.77297"
       style="fill:#eff2f2;fill-opacity:1;fill-rule:nonzero;stroke:none"
       id="path4596" />
    <path
       inkscape:connector-curvature="0"
       d="m 438.27925,546.11444 c 0,-0.97678 -0.78834,-1.76983 -1.77611,-1.76983 -0.97364,0 -1.77454,0.79305 -1.77454,1.76983 0,0.97835 0.8009,1.77296 1.77454,1.77296 0.98777,0 1.77611,-0.79461 1.77611,-1.77296"
       style="fill:#eff2f2;fill-opacity:1;fill-rule:nonzero;stroke:none"
       id="path4598" />
    <path
       inkscape:connector-curvature="0"
       d="m 443.59187,542.67686 c 0,-0.97521 -0.78834,-1.76983 -1.77611,-1.76983 -0.97521,0 -1.77454,0.79462 -1.77454,1.76983 0,0.97992 0.79933,1.77297 1.77454,1.77297 0.98777,0 1.77611,-0.79305 1.77611,-1.77297"
       style="fill:#eff2f2;fill-opacity:1;fill-rule:nonzero;stroke:none"
       id="path4600" />
    <path
       inkscape:connector-curvature="0"
       d="m 450.05401,540.54427 c 0,-0.97992 -0.8009,-1.77297 -1.77454,-1.77297 -0.97521,0 -1.7761,0.79305 -1.7761,1.77297 0,0.97521 0.80089,1.76826 1.7761,1.76826 0.97364,0 1.77454,-0.79305 1.77454,-1.76826"
       style="fill:#eff2f2;fill-opacity:1;fill-rule:nonzero;stroke:none"
       id="path4602" />
    <path
       inkscape:connector-curvature="0"
       d="m 456.66691,540.33541 c 0,-0.97835 -0.80089,-1.7714 -1.77453,-1.7714 -0.97521,0 -1.77611,0.79305 -1.77611,1.7714 0,0.97678 0.8009,1.76983 1.77611,1.76983 0.97364,0 1.77453,-0.79305 1.77453,-1.76983"
       style="fill:#eff2f2;fill-opacity:1;fill-rule:nonzero;stroke:none"
       id="path4604" />
    <path
       inkscape:connector-curvature="0"
       d="m 462.80713,542.41774 c 0,-0.97835 -0.78519,-1.77139 -1.75883,-1.77139 -0.98935,0 -1.77454,0.79304 -1.77454,1.77139 0,0.97679 0.78519,1.7714 1.77454,1.7714 0.97364,0 1.75883,-0.79461 1.75883,-1.7714"
       style="fill:#eff2f2;fill-opacity:1;fill-rule:nonzero;stroke:none"
       id="path4606" />
    <path
       inkscape:connector-curvature="0"
       d="m 468.02082,546.27305 c 0,-0.97836 -0.7852,-1.77297 -1.77454,-1.77297 -0.97364,0 -1.77454,0.79461 -1.77454,1.77297 0,0.97678 0.8009,1.76982 1.77454,1.76982 0.98934,0 1.77454,-0.79304 1.77454,-1.76982"
       style="fill:#eff2f2;fill-opacity:1;fill-rule:nonzero;stroke:none"
       id="path4608" />
    <path
       inkscape:connector-curvature="0"
       d="m 471.35004,551.63749 c 0,-0.97835 -0.8009,-1.77297 -1.77454,-1.77297 -0.97364,0 -1.77454,0.79462 -1.77454,1.77297 0,0.97521 0.8009,1.76983 1.77454,1.76983 0.97364,0 1.77454,-0.79462 1.77454,-1.76983"
       style="fill:#eff2f2;fill-opacity:1;fill-rule:nonzero;stroke:none"
       id="path4610" />
  </g>
</svg>
