<svg style="background-attachment: scroll; background-blend-mode: normal; background-clip: border-box; background-color: rgba(0, 0, 0, 0); background-image: none; background-origin: padding-box; background-position: 0% 0%; background-repeat: repeat; background-size: auto; border-bottom-color: rgb(51, 51, 51); border-bottom-left-radius: 0px; border-bottom-right-radius: 0px; border-bottom-style: none; border-bottom-width: 0px; border-collapse: separate; border-image-outset: 0px; border-image-repeat: stretch; border-image-slice: 100%; border-image-source: none; border-image-width: 1; border-left-color: rgb(51, 51, 51); border-left-style: none; border-left-width: 0px; border-right-color: rgb(51, 51, 51); border-right-style: none; border-right-width: 0px; border-top-color: rgb(51, 51, 51); border-top-left-radius: 0px; border-top-right-radius: 0px; border-top-style: none; border-top-width: 0px; bottom: auto; box-shadow: none; box-sizing: border-box; caption-side: top; clear: none; clip: auto; color: rgb(51, 51, 51); cursor: auto; direction: ltr; display: block; empty-cells: show; float: none; font-family: SkyTextReg, sans-serif; font-kerning: auto; font-size: 16px; font-stretch: normal; font-style: normal; font-variant: normal; font-variant-ligatures: normal; font-weight: normal; height: 66px; image-rendering: auto; isolation: auto; left: auto; letter-spacing: normal; line-height: 23.2000007629395px; list-style-image: none; list-style-position: outside; list-style-type: disc; margin-bottom: 0px; margin-left: 0px; margin-right: 0px; margin-top: 8px; max-height: none; max-width: 60px; min-height: 0px; min-width: 0px; mix-blend-mode: normal; object-fit: fill; object-position: 50% 50%; opacity: 1; orphans: auto; outline-color: rgb(51, 51, 51); outline-offset: 0px; outline-style: none; outline-width: 0px; overflow-wrap: normal; overflow-x: visible; overflow-y: visible; padding-bottom: 0px; padding-left: 0px; padding-right: 0px; padding-top: 0px; page-break-after: auto; page-break-before: auto; page-break-inside: auto; pointer-events: auto; position: static; resize: none; right: auto; speak: normal; table-layout: auto; tab-size: 8; text-align: start; text-decoration: none; text-indent: 0px; text-rendering: auto; text-shadow: none; text-overflow: clip; text-transform: none; top: auto; touch-action: auto; transition-delay: 0s; transition-duration: 0s; transition-property: all; transition-timing-function: ease; unicode-bidi: normal; vertical-align: baseline; visibility: visible; white-space: normal; widows: 1; width: 60px; will-change: auto; word-break: normal; word-spacing: 0px; word-wrap: normal; z-index: auto; zoom: 1; -webkit-animation-delay: 0s; -webkit-animation-direction: normal; -webkit-animation-duration: 0s; -webkit-animation-fill-mode: none; -webkit-animation-iteration-count: 1; -webkit-animation-name: none; -webkit-animation-play-state: running; -webkit-animation-timing-function: ease; -webkit-appearance: none; backface-visibility: visible; -webkit-backface-visibility: visible; -webkit-background-clip: border-box; -webkit-background-composite: source-over; -webkit-background-origin: padding-box; -webkit-background-size: auto; -webkit-border-horizontal-spacing: 0px; -webkit-border-image: none; -webkit-border-vertical-spacing: 0px; -webkit-box-align: stretch; -webkit-box-decoration-break: slice; -webkit-box-direction: normal; -webkit-box-flex: 0; -webkit-box-flex-group: 1; -webkit-box-lines: single; -webkit-box-ordinal-group: 1; -webkit-box-orient: horizontal; -webkit-box-pack: start; -webkit-box-reflect: none; -webkit-box-shadow: none; -webkit-clip-path: none; -webkit-column-break-after: auto; -webkit-column-break-before: auto; -webkit-column-break-inside: auto; -webkit-column-count: auto; -webkit-column-gap: normal; -webkit-column-rule-color: rgb(51, 51, 51); -webkit-column-rule-style: none; -webkit-column-rule-width: 0px; -webkit-column-span: none; -webkit-column-width: auto; -webkit-filter: none; align-content: stretch; align-items: start; align-self: start; flex-basis: auto; flex-grow: 0; flex-shrink: 1; flex-direction: row; flex-wrap: nowrap; justify-content: start; -webkit-font-smoothing: antialiased; -webkit-highlight: none; -webkit-hyphenate-character: auto; -webkit-line-box-contain: block inline replaced; -webkit-line-break: auto; -webkit-line-clamp: none; -webkit-locale: en; -webkit-margin-before-collapse: collapse; -webkit-margin-after-collapse: collapse; -webkit-mask-box-image: none; -webkit-mask-box-image-outset: 0px; -webkit-mask-box-image-repeat: stretch; -webkit-mask-box-image-slice: 0 fill; -webkit-mask-box-image-source: none; -webkit-mask-box-image-width: auto; -webkit-mask-clip: border-box; -webkit-mask-composite: source-over; -webkit-mask-image: none; -webkit-mask-origin: border-box; -webkit-mask-position: 0% 0%; -webkit-mask-repeat: repeat; -webkit-mask-size: auto; order: 0; perspective: none; -webkit-perspective: none; perspective-origin: 30px 33px; -webkit-perspective-origin: 30px 33px; -webkit-print-color-adjust: economy; -webkit-rtl-ordering: logical; shape-outside: none; shape-image-threshold: 0; shape-margin: 0px; -webkit-tap-highlight-color: rgba(0, 0, 0, 0); -webkit-text-combine: none; -webkit-text-decorations-in-effect: none; -webkit-text-emphasis-color: rgb(51, 51, 51); -webkit-text-emphasis-position: over; -webkit-text-emphasis-style: none; -webkit-text-fill-color: rgb(51, 51, 51); -webkit-text-orientation: vertical-right; -webkit-text-security: none; -webkit-text-stroke-color: rgb(51, 51, 51); -webkit-text-stroke-width: 0px; transform: none; -webkit-transform: none; transform-origin: 30px 33px; -webkit-transform-origin: 30px 33px; transform-style: flat; -webkit-transform-style: flat; -webkit-transition-delay: 0s; -webkit-transition-duration: 0s; -webkit-transition-property: all; -webkit-transition-timing-function: ease; -webkit-user-drag: auto; -webkit-user-modify: read-only; -webkit-user-select: text; -webkit-writing-mode: horizontal-tb; -webkit-app-region: no-drag; buffered-rendering: auto; clip-path: none; clip-rule: nonzero; mask: none; filter: none; flood-color: rgb(0, 0, 0); flood-opacity: 1; lighting-color: rgb(255, 255, 255); stop-color: rgb(0, 0, 0); stop-opacity: 1; color-interpolation: srgb; color-interpolation-filters: linearrgb; color-rendering: auto; fill: rgb(0, 0, 0); fill-opacity: 1; fill-rule: nonzero; marker-end: none; marker-mid: none; marker-start: none; mask-type: luminance; shape-rendering: auto; stroke: none; stroke-dasharray: none; stroke-dashoffset: 0; stroke-linecap: butt; stroke-linejoin: miter; stroke-miterlimit: 4; stroke-opacity: 1; stroke-width: 1; alignment-baseline: auto; baseline-shift: baseline; dominant-baseline: auto; text-anchor: start; writing-mode: lr-tb; glyph-orientation-horizontal: 0deg; glyph-orientation-vertical: auto; vector-effect: none; paint-order: fill stroke markers;" width="500" height="500" xmlns="http://www.w3.org/2000/svg" version="1.1" xmlns:xlink="http://www.w3.org/1999/xlink"><style type="text/css">* { padding: 0px; margin: 0px; box-sizing: border-box; }</style><svg xmlns="http://www.w3.org/2000/svg" viewBox="0 0 500 500" class="f1-svg-track"><path class="f1-svg-track__outline" d="M332.163 327.412c-88.011 0-190.527-1.053-229.12-1.449-8.515-.088-14.14-.145-15.176-.145-11.729 0-17.234-8.734-18.073-14.604-.527-3.689-2.107-11.459-2.856-14.199-1.758-1.383-2.868-3.324-3.871-5.078-1.057-1.848-2.055-3.594-3.54-4.336-.528-.264-53.827-30.35-58.148-46.193-4.16-15.25.991-39.568 16.81-53.865 14.58-13.18 31.717-14.955 46.558-14.955 1.774 0 3.504.025 5.184.061 6.679.133 21.353.16 32.487.16 19.622 0 41.819-.088 47.116-.162l.491-.002c10.44 0 18.625 4.809 22.454 13.195 3.57 7.818 2.545 17.338-2.491 23.15-.555.639-1.11 1.287-1.667 1.938-7.456 8.709-15.907 18.578-32.094 19.494-4.836.275-11.872.328-19.32.385-14.725.109-36.977.277-41.698 2.725-6.362 3.299-9.104 11.199-6.771 19.336 5.564 5.875 60.057 36.035 67.049 37.039.739.053 7.438.162 16.897.162 21.824 0 31.763-.561 33.756-1.055.751-.42 5.223-3.217 4.992-10.117-.08-2.406-.253-4.902-.42-7.316-.465-6.723-.905-13.07.643-17.457 1.836-5.201 42.411-62.215 52.566-67.971 4.312-2.443 7.953-3.533 11.806-3.533 5.324 0 10.576 2.043 19 6.064 6.45 3.078 49.543 26.842 89.795 53.17 44.915 29.377 69.206 43.656 74.262 43.656l.337-.023c3.261-.391 5.863-1.73 6.962-3.584.63-1.061.692-2.189.189-3.447-.42-1.051-1.108-2.91-1.979-5.264-8.057-21.771-13.387-33.852-15.844-35.912-.548-.266-2.361-.967-3.969-1.59-18.095-7.006-34.987-14.887-36.055-25.027-.892-8.467 1.141-15.934 5.722-21.021 4.333-4.812 10.581-7.252 18.57-7.252l.657.006c5.955.098 20.862 5.568 31.817 10.225 11.332 4.816 25.432 11.602 28.245 16.58 2.249 3.979 2.797 14.836 3.116 36.174.064 4.268.134 8.977.277 11.457 2.266.482 6.5.869 8.241.869l.728-.004c11.872 0 13.949 5.479 14.13 8.742.028.506 2.497 50.543-23.857 57.764-2.901.793-11.723 3.209-143.908 3.209zm-267.416-146.951c-13.342 0-28.68 1.535-41.278 12.924-14.791 13.369-17.393 35.322-14.494 45.951 2.81 10.301 46.578 37.475 54.073 41.223 3.616 1.809 5.412 4.947 6.854 7.471.63 1.102 1.491 2.607 2.005 2.865 1.942.973 2.398 2.422 3.865 9.393.76 3.607 1.506 7.643 1.817 9.814.312 2.182 2.765 7.842 10.278 7.842 1.077 0 6.414.055 15.257.146 38.582.396 141.068 1.449 229.039 1.449 108.377 0 136.945-1.594 141.826-2.932 17.042-4.67 18.595-40.416 18.077-49.732-.01-.08-1.055-1.307-6.269-1.307l-.728.004c-1.233 0-12.131-.1-14.886-3.543-1.209-1.514-1.293-2.439-1.504-16.537-.142-9.49-.437-29.24-2.103-32.428-.992-1.504-8.631-6.498-24.826-13.352-14.334-6.066-25.386-9.395-28.508-9.447l-.525-.004c-5.663 0-9.942 1.564-12.718 4.646-3.024 3.359-4.388 8.801-3.743 14.93.324 3.082 5.978 8.797 31.067 18.508 2.899 1.123 4.215 1.639 5.025 2.088 4.252 2.363 9.129 12.463 19.329 40.025.851 2.299 1.523 4.117 1.906 5.072 1.412 3.529 1.153 7.219-.727 10.389-2.374 4.002-7.037 6.693-12.795 7.385-.441.053-.859.078-1.276.078-5.197 0-15.116-3.438-78.572-44.939-39.279-25.693-82.747-49.729-88.876-52.654-7.195-3.434-11.814-5.295-15.609-5.295-2.451 0-4.82.75-7.924 2.51-7.282 4.127-46.338 57.281-49.042 63.789-.987 2.801-.583 8.617-.194 14.242.172 2.484.35 5.051.435 7.598.341 10.205-5.917 15.857-9.669 17.586-1.117.516-3.735 1.725-36.949 1.725-8.133 0-16.354-.092-17.594-.195-5.854-.488-31.201-14.336-38.83-18.568-33.336-18.494-34.383-21.846-34.887-23.457-3.757-12.025.565-24.025 10.51-29.182 5.939-3.078 22.506-3.438 45.263-3.609 7.35-.055 14.292-.107 18.935-.369 12.834-.727 19.5-8.512 26.558-16.756.567-.662 1.133-1.322 1.697-1.975 2.988-3.447 3.538-9.775 1.279-14.723-2.53-5.541-7.961-8.592-15.292-8.592l-.381.002c-5.322.074-27.574.164-47.226.164-11.17 0-25.9-.029-32.645-.164-1.627-.034-3.305-.059-5.025-.059z"/></svg></svg>