<svg style="background-attachment: scroll; background-blend-mode: normal; background-clip: border-box; background-color: rgba(0, 0, 0, 0); background-image: none; background-origin: padding-box; background-position: 0% 0%; background-repeat: repeat; background-size: auto; border-bottom-color: rgb(51, 51, 51); border-bottom-left-radius: 0px; border-bottom-right-radius: 0px; border-bottom-style: none; border-bottom-width: 0px; border-collapse: separate; border-image-outset: 0px; border-image-repeat: stretch; border-image-slice: 100%; border-image-source: none; border-image-width: 1; border-left-color: rgb(51, 51, 51); border-left-style: none; border-left-width: 0px; border-right-color: rgb(51, 51, 51); border-right-style: none; border-right-width: 0px; border-top-color: rgb(51, 51, 51); border-top-left-radius: 0px; border-top-right-radius: 0px; border-top-style: none; border-top-width: 0px; bottom: auto; box-shadow: none; box-sizing: border-box; caption-side: top; clear: none; clip: auto; color: rgb(51, 51, 51); cursor: auto; direction: ltr; display: block; empty-cells: show; float: none; font-family: SkyTextReg, sans-serif; font-kerning: auto; font-size: 16px; font-stretch: normal; font-style: normal; font-variant: normal; font-variant-ligatures: normal; font-weight: normal; height: 51px; image-rendering: auto; isolation: auto; left: auto; letter-spacing: normal; line-height: 23.2000007629395px; list-style-image: none; list-style-position: outside; list-style-type: disc; margin-bottom: 0px; margin-left: 0px; margin-right: 0px; margin-top: 8px; max-height: none; max-width: 60px; min-height: 0px; min-width: 0px; mix-blend-mode: normal; object-fit: fill; object-position: 50% 50%; opacity: 1; orphans: auto; outline-color: rgb(51, 51, 51); outline-offset: 0px; outline-style: none; outline-width: 0px; overflow-wrap: normal; overflow-x: visible; overflow-y: visible; padding-bottom: 0px; padding-left: 0px; padding-right: 0px; padding-top: 0px; page-break-after: auto; page-break-before: auto; page-break-inside: auto; pointer-events: auto; position: static; resize: none; right: auto; speak: normal; table-layout: auto; tab-size: 8; text-align: start; text-decoration: none; text-indent: 0px; text-rendering: auto; text-shadow: none; text-overflow: clip; text-transform: none; top: auto; touch-action: auto; transition-delay: 0s; transition-duration: 0s; transition-property: all; transition-timing-function: ease; unicode-bidi: normal; vertical-align: baseline; visibility: visible; white-space: normal; widows: 1; width: 60px; will-change: auto; word-break: normal; word-spacing: 0px; word-wrap: normal; z-index: auto; zoom: 1; -webkit-animation-delay: 0s; -webkit-animation-direction: normal; -webkit-animation-duration: 0s; -webkit-animation-fill-mode: none; -webkit-animation-iteration-count: 1; -webkit-animation-name: none; -webkit-animation-play-state: running; -webkit-animation-timing-function: ease; -webkit-appearance: none; backface-visibility: visible; -webkit-backface-visibility: visible; -webkit-background-clip: border-box; -webkit-background-composite: source-over; -webkit-background-origin: padding-box; -webkit-background-size: auto; -webkit-border-horizontal-spacing: 0px; -webkit-border-image: none; -webkit-border-vertical-spacing: 0px; -webkit-box-align: stretch; -webkit-box-decoration-break: slice; -webkit-box-direction: normal; -webkit-box-flex: 0; -webkit-box-flex-group: 1; -webkit-box-lines: single; -webkit-box-ordinal-group: 1; -webkit-box-orient: horizontal; -webkit-box-pack: start; -webkit-box-reflect: none; -webkit-box-shadow: none; -webkit-clip-path: none; -webkit-column-break-after: auto; -webkit-column-break-before: auto; -webkit-column-break-inside: auto; -webkit-column-count: auto; -webkit-column-gap: normal; -webkit-column-rule-color: rgb(51, 51, 51); -webkit-column-rule-style: none; -webkit-column-rule-width: 0px; -webkit-column-span: none; -webkit-column-width: auto; -webkit-filter: none; align-content: stretch; align-items: start; align-self: start; flex-basis: auto; flex-grow: 0; flex-shrink: 1; flex-direction: row; flex-wrap: nowrap; justify-content: start; -webkit-font-smoothing: antialiased; -webkit-highlight: none; -webkit-hyphenate-character: auto; -webkit-line-box-contain: block inline replaced; -webkit-line-break: auto; -webkit-line-clamp: none; -webkit-locale: en; -webkit-margin-before-collapse: collapse; -webkit-margin-after-collapse: collapse; -webkit-mask-box-image: none; -webkit-mask-box-image-outset: 0px; -webkit-mask-box-image-repeat: stretch; -webkit-mask-box-image-slice: 0 fill; -webkit-mask-box-image-source: none; -webkit-mask-box-image-width: auto; -webkit-mask-clip: border-box; -webkit-mask-composite: source-over; -webkit-mask-image: none; -webkit-mask-origin: border-box; -webkit-mask-position: 0% 0%; -webkit-mask-repeat: repeat; -webkit-mask-size: auto; order: 0; perspective: none; -webkit-perspective: none; perspective-origin: 30px 25.5px; -webkit-perspective-origin: 30px 25.5px; -webkit-print-color-adjust: economy; -webkit-rtl-ordering: logical; shape-outside: none; shape-image-threshold: 0; shape-margin: 0px; -webkit-tap-highlight-color: rgba(0, 0, 0, 0); -webkit-text-combine: none; -webkit-text-decorations-in-effect: none; -webkit-text-emphasis-color: rgb(51, 51, 51); -webkit-text-emphasis-position: over; -webkit-text-emphasis-style: none; -webkit-text-fill-color: rgb(51, 51, 51); -webkit-text-orientation: vertical-right; -webkit-text-security: none; -webkit-text-stroke-color: rgb(51, 51, 51); -webkit-text-stroke-width: 0px; transform: none; -webkit-transform: none; transform-origin: 30px 25.5px; -webkit-transform-origin: 30px 25.5px; transform-style: flat; -webkit-transform-style: flat; -webkit-transition-delay: 0s; -webkit-transition-duration: 0s; -webkit-transition-property: all; -webkit-transition-timing-function: ease; -webkit-user-drag: auto; -webkit-user-modify: read-only; -webkit-user-select: text; -webkit-writing-mode: horizontal-tb; -webkit-app-region: no-drag; buffered-rendering: auto; clip-path: none; clip-rule: nonzero; mask: none; filter: none; flood-color: rgb(0, 0, 0); flood-opacity: 1; lighting-color: rgb(255, 255, 255); stop-color: rgb(0, 0, 0); stop-opacity: 1; color-interpolation: srgb; color-interpolation-filters: linearrgb; color-rendering: auto; fill: rgb(0, 0, 0); fill-opacity: 1; fill-rule: nonzero; marker-end: none; marker-mid: none; marker-start: none; mask-type: luminance; shape-rendering: auto; stroke: none; stroke-dasharray: none; stroke-dashoffset: 0; stroke-linecap: butt; stroke-linejoin: miter; stroke-miterlimit: 4; stroke-opacity: 1; stroke-width: 1; alignment-baseline: auto; baseline-shift: baseline; dominant-baseline: auto; text-anchor: start; writing-mode: lr-tb; glyph-orientation-horizontal: 0deg; glyph-orientation-vertical: auto; vector-effect: none; paint-order: fill stroke markers;" width="500" height="375" xmlns="http://www.w3.org/2000/svg" version="1.1" xmlns:xlink="http://www.w3.org/1999/xlink"><style type="text/css">* { padding: 0px; margin: 0px; box-sizing: border-box; }</style><svg xmlns="http://www.w3.org/2000/svg" viewBox="0 0 500 375" class="f1-svg-track"><path class="f1-svg-track__outline" d="M413.732 323.384c-2.223 0-4.331-.003-6.33-.008-39.422-.123-42.857-1.608-44.509-2.323-1.158-.492-2.941-1.25-36.582-31.906-28.894-26.306-35.197-29.27-36.44-29.551-.756-.146-1.531-.223-2.277-.223-2.904 0-5.6 1.153-8.24 3.524-3.211 2.91-5.687 7.018-7.345 12.199-.656 2.042-1.565 6.487-2.171 16.09-.712 11.283-1.516 14.406-2.208 15.974-1.029 2.334-2.938 4.501-5.672 6.439-2.634 1.868-5.834 3.123-9.514 3.728-3.271.539-14.532 1.248-34.423 2.165-10.648.509-19.579.941-26.786 1.292-6.059.314-10.913.568-14.555.763-13.777.785-25.003 1.122-33.408 1.004-23.475-.292-37.671-4.307-43.395-12.274-5.188-7.185-8.837-17.613-11.149-31.873-.121-.806-.606-5.044-3.378-31.302-1.438-14.265-2.777-25.613-3.977-33.745-1.132-7.469-4.843-8.478-8.321-8.478-.263 0-.529.007-.802.021-9.015.468-10.729 4.019-11.291 5.186-2.047 4.129-3.303 7.998-3.755 11.538-.569 4.146-.946 6.662-1.16 7.733-1.795 8.93-1.972 10.761-1.981 11.109-.089 2.989.846 5.628 2.858 8.062 6.888 8.273 10.327 14.284 10.814 18.904.413 3.99.438 10.991.076 21.41-.548 14.189-1.942 18-4.165 19.792-1.981 1.541-5.357 2.783-10.677 3.953-3.571.751-8.332 1.112-14.59 1.112-2.644 0-5.589-.067-8.752-.2-11.23-.475-19.064-2.721-23.949-6.869-.451-.384-.811-.864-1.051-1.406-3.112-7.023-4.67-15-4.628-23.708l.014-.312c.723-8.577 1.391-14.623 2.041-18.483.301-1.928 1.49-10.063 3.628-24.826 1.882-12.779 4.447-30.346 7.7-52.713 9.422-64.917 11.829-76.125 12.82-78.91 1.588-4.588 3.403-7.988 5.541-10.363 5.798-6.533 14.448-10.948 25.691-13.104 5.94-1.133 33.876-6.882 83.034-17.089 58.52-12.183 67.985-13.881 69.695-13.999 4.3-.283 7.325.021 9.535.938 3.615 1.603 5.624 5.139 6.059 10.548.389 4.74-2.027 11.578-7.599 21.515-6.237 11.07-6.851 14.113-6.902 14.729.138.754 1.092 4.07 7.343 17.731 1.504 3.284 3.275 7.061 5.261 11.225 8.36 17.764 18.687 35.019 30.7 51.306 8.926 12.071 15.156 20.287 18.515 24.418 5.921 7.333 11.758 13.558 17.359 18.513 12.055 10.687 30.807 21.635 55.737 32.544 19.323 8.443 51.511 19.661 95.666 33.341 20.664 6.406 33.826 10.57 39.122 12.375 16.51 5.523 18.438 7.396 18.898 10.35.785 4.896-1.755 8.697-6.798 10.148-4.148 1.137-12.907 1.683-26.825 1.683-21.502.201-39.178.303-52.502.303zm-47.605-9.522c1.542.495 8.678 1.538 41.298 1.64 1.991.005 4.092.008 6.308.008 13.299 0 30.952-.102 52.468-.302 16.257 0 22.42-.755 24.733-1.39.396-.114.673-.238.856-.341-1.559-.804-5.159-2.376-13.347-5.115-5.248-1.789-18.341-5.929-38.935-12.313-44.433-13.767-76.896-25.087-96.489-33.648-25.688-11.24-45.136-22.633-57.803-33.864-5.927-5.243-12.07-11.789-18.258-19.451-3.426-4.214-9.729-12.526-18.729-24.697-12.321-16.704-22.913-34.404-31.482-52.612-1.994-4.182-3.782-7.996-5.306-11.318-7.291-15.937-7.979-19-8.053-20.62-.121-2.338.752-6.276 7.907-18.976 6.081-10.841 6.756-15.317 6.616-17.02-.194-2.413-.801-3.722-1.316-3.95-.229-.094-1.222-.4-3.573-.4-.706 0-1.489.028-2.328.083-1.641.146-14.906 2.67-68.621 13.853-49.2 10.213-77.178 15.971-83.157 17.112-9.495 1.82-16.663 5.392-21.299 10.616-1.419 1.576-2.753 4.168-3.983 7.724-.945 2.656-3.862 18.214-12.458 77.435-3.253 22.374-5.819 39.946-7.7 52.719-2.141 14.783-3.335 22.947-3.648 24.95-.608 3.615-1.263 9.563-1.953 17.725-.016 7.16 1.186 13.696 3.576 19.446 3.562 2.571 9.931 4.115 18.511 4.478 9.834.415 17.068.158 21.354-.744 4.464-.982 6.347-1.795 7.073-2.194.351-.928 1.169-4.113 1.556-14.143.345-9.897.331-16.733-.039-20.302-.172-1.636-1.577-5.729-9.043-14.695-3.247-3.927-4.814-8.408-4.668-13.331.033-1.067.312-3.37 2.131-12.412.122-.613.409-2.37 1.075-7.222.558-4.374 2.068-9.084 4.486-13.963 2.839-5.88 8.886-9.119 17.957-9.59.412-.021.814-.031 1.21-.031 8.903 0 14.624 5.393 16.108 15.186 1.221 8.267 2.572 19.735 4.021 34.102 2.061 19.527 3.18 29.928 3.325 30.897 2.075 12.794 5.361 22.394 9.759 28.485 2.828 3.936 11.556 8.685 37.11 9.003 1.075.015 2.188.023 3.348.023 7.76 0 17.691-.342 29.522-1.016 3.658-.196 8.517-.451 14.593-.765 7.222-.352 16.155-.784 26.812-1.293 24.058-1.109 31.503-1.737 33.515-2.068 2.488-.41 4.587-1.211 6.237-2.381 1.536-1.089 2.581-2.194 3.022-3.196.141-.328.873-2.51 1.554-13.291.535-8.479 1.363-14.366 2.532-18 2.084-6.512 5.303-11.777 9.567-15.641 5.158-4.634 11.059-6.395 17.32-5.178 3.604.723 11.18 5.02 40.215 31.455 26.537 24.18 33.063 29.568 34.513 30.533z"/></svg></svg>