<svg style="background-attachment: scroll; background-blend-mode: normal; background-clip: border-box; background-color: rgba(0, 0, 0, 0); background-image: none; background-origin: padding-box; background-position: 0% 0%; background-repeat: repeat; background-size: auto; border-bottom-color: rgb(51, 51, 51); border-bottom-left-radius: 0px; border-bottom-right-radius: 0px; border-bottom-style: none; border-bottom-width: 0px; border-collapse: separate; border-image-outset: 0px; border-image-repeat: stretch; border-image-slice: 100%; border-image-source: none; border-image-width: 1; border-left-color: rgb(51, 51, 51); border-left-style: none; border-left-width: 0px; border-right-color: rgb(51, 51, 51); border-right-style: none; border-right-width: 0px; border-top-color: rgb(51, 51, 51); border-top-left-radius: 0px; border-top-right-radius: 0px; border-top-style: none; border-top-width: 0px; bottom: auto; box-shadow: none; box-sizing: border-box; caption-side: top; clear: none; clip: auto; color: rgb(51, 51, 51); cursor: auto; direction: ltr; display: block; empty-cells: show; float: none; font-family: SkyTextReg, sans-serif; font-kerning: auto; font-size: 16px; font-stretch: normal; font-style: normal; font-variant: normal; font-variant-ligatures: normal; font-weight: normal; height: 51px; image-rendering: auto; isolation: auto; left: auto; letter-spacing: normal; line-height: 23.2000007629395px; list-style-image: none; list-style-position: outside; list-style-type: disc; margin-bottom: 0px; margin-left: 0px; margin-right: 0px; margin-top: 8px; max-height: none; max-width: 60px; min-height: 0px; min-width: 0px; mix-blend-mode: normal; object-fit: fill; object-position: 50% 50%; opacity: 1; orphans: auto; outline-color: rgb(51, 51, 51); outline-offset: 0px; outline-style: none; outline-width: 0px; overflow-wrap: normal; overflow-x: visible; overflow-y: visible; padding-bottom: 0px; padding-left: 0px; padding-right: 0px; padding-top: 0px; page-break-after: auto; page-break-before: auto; page-break-inside: auto; pointer-events: auto; position: static; resize: none; right: auto; speak: normal; table-layout: auto; tab-size: 8; text-align: start; text-decoration: none; text-indent: 0px; text-rendering: auto; text-shadow: none; text-overflow: clip; text-transform: none; top: auto; touch-action: auto; transition-delay: 0s; transition-duration: 0s; transition-property: all; transition-timing-function: ease; unicode-bidi: normal; vertical-align: baseline; visibility: visible; white-space: normal; widows: 1; width: 60px; will-change: auto; word-break: normal; word-spacing: 0px; word-wrap: normal; z-index: auto; zoom: 1; -webkit-animation-delay: 0s; -webkit-animation-direction: normal; -webkit-animation-duration: 0s; -webkit-animation-fill-mode: none; -webkit-animation-iteration-count: 1; -webkit-animation-name: none; -webkit-animation-play-state: running; -webkit-animation-timing-function: ease; -webkit-appearance: none; backface-visibility: visible; -webkit-backface-visibility: visible; -webkit-background-clip: border-box; -webkit-background-composite: source-over; -webkit-background-origin: padding-box; -webkit-background-size: auto; -webkit-border-horizontal-spacing: 0px; -webkit-border-image: none; -webkit-border-vertical-spacing: 0px; -webkit-box-align: stretch; -webkit-box-decoration-break: slice; -webkit-box-direction: normal; -webkit-box-flex: 0; -webkit-box-flex-group: 1; -webkit-box-lines: single; -webkit-box-ordinal-group: 1; -webkit-box-orient: horizontal; -webkit-box-pack: start; -webkit-box-reflect: none; -webkit-box-shadow: none; -webkit-clip-path: none; -webkit-column-break-after: auto; -webkit-column-break-before: auto; -webkit-column-break-inside: auto; -webkit-column-count: auto; -webkit-column-gap: normal; -webkit-column-rule-color: rgb(51, 51, 51); -webkit-column-rule-style: none; -webkit-column-rule-width: 0px; -webkit-column-span: none; -webkit-column-width: auto; -webkit-filter: none; align-content: stretch; align-items: start; align-self: start; flex-basis: auto; flex-grow: 0; flex-shrink: 1; flex-direction: row; flex-wrap: nowrap; justify-content: start; -webkit-font-smoothing: antialiased; -webkit-highlight: none; -webkit-hyphenate-character: auto; -webkit-line-box-contain: block inline replaced; -webkit-line-break: auto; -webkit-line-clamp: none; -webkit-locale: en; -webkit-margin-before-collapse: collapse; -webkit-margin-after-collapse: collapse; -webkit-mask-box-image: none; -webkit-mask-box-image-outset: 0px; -webkit-mask-box-image-repeat: stretch; -webkit-mask-box-image-slice: 0 fill; -webkit-mask-box-image-source: none; -webkit-mask-box-image-width: auto; -webkit-mask-clip: border-box; -webkit-mask-composite: source-over; -webkit-mask-image: none; -webkit-mask-origin: border-box; -webkit-mask-position: 0% 0%; -webkit-mask-repeat: repeat; -webkit-mask-size: auto; order: 0; perspective: none; -webkit-perspective: none; perspective-origin: 30px 25.5px; -webkit-perspective-origin: 30px 25.5px; -webkit-print-color-adjust: economy; -webkit-rtl-ordering: logical; shape-outside: none; shape-image-threshold: 0; shape-margin: 0px; -webkit-tap-highlight-color: rgba(0, 0, 0, 0); -webkit-text-combine: none; -webkit-text-decorations-in-effect: none; -webkit-text-emphasis-color: rgb(51, 51, 51); -webkit-text-emphasis-position: over; -webkit-text-emphasis-style: none; -webkit-text-fill-color: rgb(51, 51, 51); -webkit-text-orientation: vertical-right; -webkit-text-security: none; -webkit-text-stroke-color: rgb(51, 51, 51); -webkit-text-stroke-width: 0px; transform: none; -webkit-transform: none; transform-origin: 30px 25.5px; -webkit-transform-origin: 30px 25.5px; transform-style: flat; -webkit-transform-style: flat; -webkit-transition-delay: 0s; -webkit-transition-duration: 0s; -webkit-transition-property: all; -webkit-transition-timing-function: ease; -webkit-user-drag: auto; -webkit-user-modify: read-only; -webkit-user-select: text; -webkit-writing-mode: horizontal-tb; -webkit-app-region: no-drag; buffered-rendering: auto; clip-path: none; clip-rule: nonzero; mask: none; filter: none; flood-color: rgb(0, 0, 0); flood-opacity: 1; lighting-color: rgb(255, 255, 255); stop-color: rgb(0, 0, 0); stop-opacity: 1; color-interpolation: srgb; color-interpolation-filters: linearrgb; color-rendering: auto; fill: rgb(0, 0, 0); fill-opacity: 1; fill-rule: nonzero; marker-end: none; marker-mid: none; marker-start: none; mask-type: luminance; shape-rendering: auto; stroke: none; stroke-dasharray: none; stroke-dashoffset: 0; stroke-linecap: butt; stroke-linejoin: miter; stroke-miterlimit: 4; stroke-opacity: 1; stroke-width: 1; alignment-baseline: auto; baseline-shift: baseline; dominant-baseline: auto; text-anchor: start; writing-mode: lr-tb; glyph-orientation-horizontal: 0deg; glyph-orientation-vertical: auto; vector-effect: none; paint-order: fill stroke markers;" width="500" height="375" xmlns="http://www.w3.org/2000/svg" version="1.1" xmlns:xlink="http://www.w3.org/1999/xlink"><style type="text/css">* { padding: 0px; margin: 0px; box-sizing: border-box; }</style><svg xmlns="http://www.w3.org/2000/svg" viewBox="0 0 500 375" class="f1-svg-track"><path class="f1-svg-track__outline" d="M214.646 344.486c-3.146 0-8.729-1.205-10.777-9.279-.308-1.216-2.004-5.231-11.111-16.299-2.419-2.993-12.636-17.328-31.257-43.85-19.389-27.652-30.21-43.514-33.085-48.492-3.123-5.456-11.586-21.606-25.163-48.017-13.789-26.837-21.583-41.855-23.167-44.639-5.917-10.47-18.345-25.027-36.943-43.277-13.661-13.388-26.364-24.913-37.756-34.253-3.08-2.504-4.86-5.218-5.283-8.056-.544-3.579.788-8.558 10.237-11.886 6.708-2.375 17.27-4.043 32.283-5.098 7.816-.549 15.326-.827 22.321-.827 5.614 0 11.04.179 16.128.533 9.801.714 26.637 3.267 50.053 7.588 26.327 4.829 43.439 7.748 50.858 8.676 9.827 1.2 33.021 3.035 68.927 5.452 33.424 2.259 52.324 3.404 56.175 3.404 3.4 0 8.288 1.306 12.263 7.525 2.516 3.969 4.454 10.386-.557 18.492-5.231 8.459-12.71 16.671-22.229 24.408-13.044 10.583-26.28 16.517-39.341 17.64-2.006.175-4.274.264-6.738.264-10.636 0-25.929-1.666-45.455-4.953-13.555-2.337-21.427-3.657-23.412-3.923-4.711-.709-8.307-1.064-10.749-1.064-1.329 0-1.971.105-2.236.168-5.464 1.27-10.162 3.53-13.98 6.723-4.721 3.923-7.758 8.896-9.293 15.213-1.437 5.855-1.648 10.62-.63 14.168.57 2.046 1.705 4.434 3.382 7.127.083.131.156.268.222.408.467.995 3.062 5.527 15.184 24.699 6.191 9.852 11.53 18.276 15.876 25.047 1.285 1.991 3.4 3.834 6.282 5.471 3.183 1.762 6.699 2.893 10.414 3.34 1.218.149 2.416.224 3.564.224h.001c7.609 0 13.82-3.224 18.989-9.857 5.466-6.983 8.895-11.268 10.488-13.106 4.019-4.675 8.152-8.551 12.273-11.508 9.917-7.354 23.46-11.847 40.205-13.316 14.514-1.295 45.02-2.765 90.662-4.368 23.461-.823 48.834-1.635 75.413-2.414 7.343-.211 13.373.731 18.025 2.813 7.552 3.436 13.123 10.098 16.58 19.812 1.761 4.89 4.624 12.834 8.586 23.819 2.517 7.031 4.126 11.626 4.922 14.058 3.335 9.893 3.916 13.011 4.062 14.494.801 7.776-1.909 14.271-7.838 18.765-3.759 2.874-11.435 6.841-23.452 12.12-10.03 4.384-18.06 7.594-23.873 9.544-5.979 1.979-81.704 24.071-225.088 65.669-1.718.536-3.413.818-4.962.818zm-149.701-306.098c-6.812 0-14.137.272-21.77.808-14.095.991-24.261 2.562-30.213 4.668-3.882 1.367-5.16 2.716-5.072 3.289.059.39.412 1.45 2.476 3.129 11.584 9.495 24.462 21.177 38.29 34.73 19.395 19.032 31.916 33.756 38.279 45.014 1.657 2.911 9.287 17.609 23.32 44.924 13.523 26.305 21.93 42.351 24.986 47.691 2.712 4.697 13.719 20.815 32.705 47.895 18.259 26.007 28.661 40.608 30.914 43.396 10.027 12.186 12.019 16.876 12.642 19.342.847 3.338 2.229 3.338 3.144 3.338.756 0 1.665-.163 2.7-.485 143.362-41.592 218.993-63.655 224.864-65.598 5.579-1.872 13.39-4.997 23.202-9.286 14.04-6.167 19.628-9.48 21.844-11.173 3.788-2.871 5.3-6.589 4.772-11.711-.096-.974-.701-3.905-3.7-12.799-.773-2.362-2.405-7.021-4.86-13.878-3.96-10.979-6.824-18.924-8.59-23.828-2.757-7.749-6.813-12.745-12.405-15.289-3.528-1.58-8.462-2.299-14.557-2.12-26.563.778-51.92 1.589-75.366 2.412-45.501 1.598-75.864 3.059-90.244 4.342-15.28 1.341-27.478 5.322-36.259 11.834-3.664 2.629-7.332 6.079-10.953 10.292-1.497 1.727-4.939 6.032-10.243 12.808-6.66 8.547-15.139 12.885-25.195 12.885h-.002c-1.465 0-2.983-.095-4.511-.281-4.722-.569-9.205-2.012-13.318-4.289-4.034-2.291-7.066-5.001-9.052-8.078-4.365-6.801-9.718-15.247-15.916-25.11-12.065-19.081-14.759-23.752-15.54-25.321-2.042-3.304-3.405-6.239-4.165-8.969-1.414-4.924-1.234-10.88.557-18.179 1.921-7.9 5.926-14.428 11.901-19.393 4.765-3.984 10.562-6.792 17.221-8.34 2.913-.691 7.859-.444 15.896.766 2.049.275 9.796 1.573 23.624 3.957 23.263 3.916 40.273 5.468 50.191 4.606 11.468-.985 23.261-6.338 35.057-15.908 8.832-7.178 15.728-14.727 20.495-22.436 3.111-5.032 1.839-8.187.612-10.122-2.222-3.477-4.272-3.88-5.62-3.88-4.085 0-22.633-1.12-56.705-3.422-36.046-2.427-59.383-4.275-69.362-5.493-7.579-.948-24.84-3.89-51.318-8.747-23.139-4.27-39.687-6.786-49.187-7.479-4.894-.339-10.137-.512-15.569-.512z"/></svg></svg>