<svg style="background-attachment: scroll; background-blend-mode: normal; background-clip: border-box; background-color: rgba(0, 0, 0, 0); background-image: none; background-origin: padding-box; background-position: 0% 0%; background-repeat: repeat; background-size: auto; border-bottom-color: rgb(51, 51, 51); border-bottom-left-radius: 0px; border-bottom-right-radius: 0px; border-bottom-style: none; border-bottom-width: 0px; border-collapse: separate; border-image-outset: 0px; border-image-repeat: stretch; border-image-slice: 100%; border-image-source: none; border-image-width: 1; border-left-color: rgb(51, 51, 51); border-left-style: none; border-left-width: 0px; border-right-color: rgb(51, 51, 51); border-right-style: none; border-right-width: 0px; border-top-color: rgb(51, 51, 51); border-top-left-radius: 0px; border-top-right-radius: 0px; border-top-style: none; border-top-width: 0px; bottom: auto; box-shadow: none; box-sizing: border-box; caption-side: top; clear: none; clip: auto; color: rgb(51, 51, 51); cursor: auto; direction: ltr; display: block; empty-cells: show; float: none; font-family: SkyTextReg, sans-serif; font-kerning: auto; font-size: 16px; font-stretch: normal; font-style: normal; font-variant: normal; font-variant-ligatures: normal; font-weight: normal; height: 51px; image-rendering: auto; isolation: auto; left: auto; letter-spacing: normal; line-height: 23.2000007629395px; list-style-image: none; list-style-position: outside; list-style-type: disc; margin-bottom: 0px; margin-left: 0px; margin-right: 0px; margin-top: 8px; max-height: none; max-width: 60px; min-height: 0px; min-width: 0px; mix-blend-mode: normal; object-fit: fill; object-position: 50% 50%; opacity: 1; orphans: auto; outline-color: rgb(51, 51, 51); outline-offset: 0px; outline-style: none; outline-width: 0px; overflow-wrap: normal; overflow-x: visible; overflow-y: visible; padding-bottom: 0px; padding-left: 0px; padding-right: 0px; padding-top: 0px; page-break-after: auto; page-break-before: auto; page-break-inside: auto; pointer-events: auto; position: static; resize: none; right: auto; speak: normal; table-layout: auto; tab-size: 8; text-align: start; text-decoration: none; text-indent: 0px; text-rendering: auto; text-shadow: none; text-overflow: clip; text-transform: none; top: auto; touch-action: auto; transition-delay: 0s; transition-duration: 0s; transition-property: all; transition-timing-function: ease; unicode-bidi: normal; vertical-align: baseline; visibility: visible; white-space: normal; widows: 1; width: 60px; will-change: auto; word-break: normal; word-spacing: 0px; word-wrap: normal; z-index: auto; zoom: 1; -webkit-animation-delay: 0s; -webkit-animation-direction: normal; -webkit-animation-duration: 0s; -webkit-animation-fill-mode: none; -webkit-animation-iteration-count: 1; -webkit-animation-name: none; -webkit-animation-play-state: running; -webkit-animation-timing-function: ease; -webkit-appearance: none; backface-visibility: visible; -webkit-backface-visibility: visible; -webkit-background-clip: border-box; -webkit-background-composite: source-over; -webkit-background-origin: padding-box; -webkit-background-size: auto; -webkit-border-horizontal-spacing: 0px; -webkit-border-image: none; -webkit-border-vertical-spacing: 0px; -webkit-box-align: stretch; -webkit-box-decoration-break: slice; -webkit-box-direction: normal; -webkit-box-flex: 0; -webkit-box-flex-group: 1; -webkit-box-lines: single; -webkit-box-ordinal-group: 1; -webkit-box-orient: horizontal; -webkit-box-pack: start; -webkit-box-reflect: none; -webkit-box-shadow: none; -webkit-clip-path: none; -webkit-column-break-after: auto; -webkit-column-break-before: auto; -webkit-column-break-inside: auto; -webkit-column-count: auto; -webkit-column-gap: normal; -webkit-column-rule-color: rgb(51, 51, 51); -webkit-column-rule-style: none; -webkit-column-rule-width: 0px; -webkit-column-span: none; -webkit-column-width: auto; -webkit-filter: none; align-content: stretch; align-items: start; align-self: start; flex-basis: auto; flex-grow: 0; flex-shrink: 1; flex-direction: row; flex-wrap: nowrap; justify-content: start; -webkit-font-smoothing: antialiased; -webkit-highlight: none; -webkit-hyphenate-character: auto; -webkit-line-box-contain: block inline replaced; -webkit-line-break: auto; -webkit-line-clamp: none; -webkit-locale: en; -webkit-margin-before-collapse: collapse; -webkit-margin-after-collapse: collapse; -webkit-mask-box-image: none; -webkit-mask-box-image-outset: 0px; -webkit-mask-box-image-repeat: stretch; -webkit-mask-box-image-slice: 0 fill; -webkit-mask-box-image-source: none; -webkit-mask-box-image-width: auto; -webkit-mask-clip: border-box; -webkit-mask-composite: source-over; -webkit-mask-image: none; -webkit-mask-origin: border-box; -webkit-mask-position: 0% 0%; -webkit-mask-repeat: repeat; -webkit-mask-size: auto; order: 0; perspective: none; -webkit-perspective: none; perspective-origin: 30px 25.5px; -webkit-perspective-origin: 30px 25.5px; -webkit-print-color-adjust: economy; -webkit-rtl-ordering: logical; shape-outside: none; shape-image-threshold: 0; shape-margin: 0px; -webkit-tap-highlight-color: rgba(0, 0, 0, 0); -webkit-text-combine: none; -webkit-text-decorations-in-effect: none; -webkit-text-emphasis-color: rgb(51, 51, 51); -webkit-text-emphasis-position: over; -webkit-text-emphasis-style: none; -webkit-text-fill-color: rgb(51, 51, 51); -webkit-text-orientation: vertical-right; -webkit-text-security: none; -webkit-text-stroke-color: rgb(51, 51, 51); -webkit-text-stroke-width: 0px; transform: none; -webkit-transform: none; transform-origin: 30px 25.5px; -webkit-transform-origin: 30px 25.5px; transform-style: flat; -webkit-transform-style: flat; -webkit-transition-delay: 0s; -webkit-transition-duration: 0s; -webkit-transition-property: all; -webkit-transition-timing-function: ease; -webkit-user-drag: auto; -webkit-user-modify: read-only; -webkit-user-select: text; -webkit-writing-mode: horizontal-tb; -webkit-app-region: no-drag; buffered-rendering: auto; clip-path: none; clip-rule: nonzero; mask: none; filter: none; flood-color: rgb(0, 0, 0); flood-opacity: 1; lighting-color: rgb(255, 255, 255); stop-color: rgb(0, 0, 0); stop-opacity: 1; color-interpolation: srgb; color-interpolation-filters: linearrgb; color-rendering: auto; fill: rgb(0, 0, 0); fill-opacity: 1; fill-rule: nonzero; marker-end: none; marker-mid: none; marker-start: none; mask-type: luminance; shape-rendering: auto; stroke: none; stroke-dasharray: none; stroke-dashoffset: 0; stroke-linecap: butt; stroke-linejoin: miter; stroke-miterlimit: 4; stroke-opacity: 1; stroke-width: 1; alignment-baseline: auto; baseline-shift: baseline; dominant-baseline: auto; text-anchor: start; writing-mode: lr-tb; glyph-orientation-horizontal: 0deg; glyph-orientation-vertical: auto; vector-effect: none; paint-order: fill stroke markers;" width="500" height="375" xmlns="http://www.w3.org/2000/svg" version="1.1" xmlns:xlink="http://www.w3.org/1999/xlink"><style type="text/css">* { padding: 0px; margin: 0px; box-sizing: border-box; }</style><svg xmlns="http://www.w3.org/2000/svg" viewBox="0 0 500 375" class="f1-svg-track"><path class="f1-svg-track__outline" d="M271.74 375c-.368 0-.736-.01-1.106-.029-4.595-.273-12.673-3.334-34.777-24.745-2.284-2.243-4.693-4.652-7.181-7.182-19.717-19.965-32.635-32.716-38.388-37.896-5.526-5.051-9.852-8.312-12.878-9.713-3.894-1.846-7.361-2.308-10.505-1.411-1.188.333-4.781 1.771-15.742 7.725-12.95 6.993-25.657 10.537-37.775 10.537-10.287 0-20.358-2.549-29.933-7.577-7.724-4.062-14.118-9.187-19.007-15.231-5.229-6.512-7.486-13.663-6.717-21.265.624-5.841 4.448-13.42 19.133-16.48 10.082-2.108 21.698-3.542 34.524-4.257 12.476-.741 59.767-5.062 140.545-12.841 80.792-7.782 125.538-12.004 132.992-12.55l.183-.009c19.003-.499 21.893-2.989 22.16-3.271.938-1.034 2.443-3.91 1.987-11.547-.302-5.036-2.717-7.319-8.335-7.88-7.408-.737-14.032-1.236-19.686-1.483-5.614-.242-15.799-.095-30.133.438-8.501.291-33.449.69-74.161 1.189-20.45.25-45.12.522-73.322.812-78.396.744-125.097 1.122-138.809 1.122-23.084 0-36.288-3.588-41.553-11.292-2.855-4.179-3.16-9.229-.905-15.012 3.804-9.789 11.76-13.862 22.73-11.383 3.594.841 9.795 3.587 18.987 8.401.769.396 1.24.458 1.451.458.15 0 .32-.019.6-.23.741-.547 1.278-1.814 1.56-3.607.865-5.811-1.427-12.231-6.816-19.051-6.507-8.246-10.455-18.237-11.738-29.696-1.324-11.424 1.221-24.316 7.563-38.306 6.338-14.172 14.625-23.845 24.622-28.73 9.208-4.543 17.643-8.399 25.059-11.459 7.491-3.089 18.619-6.567 33.076-10.339 14.182-3.751 29.6-8.208 45.812-13.241 6.672-2.114 13.47-4.275 20.372-6.48 32.208-10.17 40.209-11.422 43.427-11.479l.722-.01c5.634 0 9.682 1.786 12.029 5.311.92 1.379 1.626 3.058 2.156 5.131.051.196.085.396.104.597l3.183 33.131c.951 10.171 1.979 20.484 3.054 30.662.2 1.638.408 3.321.615 4.981.652 5.21 1.455 10.337 2.386 15.239 3.368 15.384 10.169 25.882 20.789 32.093 6.118 3.568 12.507 5.378 18.984 5.378 6.791 0 13.962-1.982 21.312-5.891 4.732-2.507 10.057-6.073 15.831-10.606 7.357-5.814 15.136-9.716 23.112-11.588 8.397-1.96 15.903-1.245 22.249 2.096 6.049 3.136 12.25 8.67 18.936 16.907 6.272 7.683 18.779 24.104 37.164 48.798 26.363 35.427 27.95 42.201 27.368 45.771-.682 4.224-2.322 9.305-5.014 15.526-2.694 6.126-5.99 11.838-9.805 16.996-3.959 5.244-8.788 7.889-14.375 7.89l-.167-.001c-4.4-.041-13.356-.188-26.616-.438-4.209-.091-9.932-.138-17.021-.138-15.287 0-37.521.216-66.084.639-56.415.778-66.551 2.574-68.29 3.31-1.475.618-1.968 1.125-2.096 1.286.027.132.122.413.372.829.88 1.516 3.918 4.663 14.713 9.27 4.332 1.882 8.089 4.524 11.19 7.862 4.297 4.479 7.553 10.488 9.635 17.816 3.47 12.172 3.514 24.478.128 36.568-1.371 4.931-2.965 9.492-4.736 13.553-2.601 5.819-5.688 10.89-9.188 15.102-6.072 7.249-12.782 10.919-19.954 10.92h-.002zm-101.619-89.255c3.405 0 6.976.873 10.611 2.597 3.777 1.749 8.635 5.353 14.818 11.005 5.845 5.262 18.874 18.121 38.704 38.199 2.461 2.503 4.838 4.881 7.07 7.073 20.608 19.962 27.67 22.406 29.748 22.531l.666.017h.004c4.812 0 9.372-2.651 13.939-8.105 3.035-3.651 5.742-8.112 8.037-13.246 1.611-3.695 3.082-7.91 4.358-12.495 2.991-10.684 2.951-21.555-.118-32.318-1.729-6.088-4.353-10.994-7.796-14.585-2.404-2.586-5.281-4.604-8.593-6.044-10.075-4.3-15.917-8.27-18.361-12.484-1.847-3.077-1.618-5.633-1.096-7.226.846-2.58 3.041-4.628 6.525-6.088 3.338-1.412 14.462-3.14 71.218-3.924 28.598-.423 50.871-.639 66.196-.639 7.145 0 12.925.047 17.179.14 13.224.248 22.154.396 26.532.436h.001c3.133 0 5.783-1.552 8.192-4.744 3.447-4.661 6.449-9.866 8.9-15.439 2.353-5.438 3.848-9.984 4.437-13.494-.156-1.521-2.604-8.697-25.895-39.995-18.315-24.6-30.749-40.929-36.955-48.53-5.917-7.29-11.463-12.304-16.488-14.91-2.936-1.545-6.107-2.291-9.717-2.291-2.221 0-4.617.297-7.12.881-6.844 1.606-13.592 5.01-20.051 10.114-6.151 4.829-11.869 8.652-17.006 11.372-8.488 4.514-16.896 6.805-24.984 6.805-7.882 0-15.598-2.169-22.935-6.447-12.457-7.285-20.699-19.813-24.504-37.239l-.021-.104c-.966-5.079-1.798-10.389-2.473-15.781-.208-1.669-.417-3.357-.625-5.065-1.087-10.273-2.116-20.618-3.068-30.81l-3.151-32.802c-.359-1.304-.744-2.049-1.013-2.45-.857-1.288-2.934-1.901-6.058-1.816-2.938.054-12.44 2.023-41.231 11.112-6.896 2.203-13.699 4.366-20.398 6.488-16.341 5.073-31.865 9.561-46.167 13.344-14.127 3.686-24.916 7.051-32.08 10.004-7.254 2.992-15.528 6.776-24.593 11.249-8.317 4.064-15.355 12.446-20.932 24.916-5.757 12.695-8.083 24.196-6.924 34.202 1.12 9.999 4.519 18.65 10.104 25.729 6.782 8.581 9.612 17.023 8.412 25.091-.627 3.984-2.175 6.897-4.606 8.691-1.526 1.161-3.374 1.794-5.296 1.794-1.639 0-3.344-.452-5.067-1.344-10.581-5.541-15.151-7.252-17.126-7.715-1.507-.341-2.939-.517-4.228-.517-4.624 0-7.539 2.192-9.449 7.107-1.897 4.866-.414 7.037.073 7.75 2.011 2.942 9.243 7.879 35.086 7.879 13.687 0 60.362-.377 138.73-1.122 28.195-.289 52.859-.562 73.305-.812 40.654-.497 65.544-.896 73.977-1.185 9.94-.369 17.958-.556 23.819-.556 2.732 0 5.064.041 6.933.121 5.801.253 12.571.763 20.125 1.515 9.384.937 14.844 6.337 15.376 15.206.485 8.118-.824 13.77-4.004 17.276-2.342 2.585-7.463 5.299-27.663 5.838-7.66.566-52.311 4.781-132.724 12.527-80.872 7.789-128.26 12.116-140.845 12.864-12.449.694-23.673 2.075-33.374 4.104-12.186 2.54-12.756 7.872-12.943 9.624-.56 5.539 1.083 10.629 5.025 15.539 4.207 5.202 9.778 9.651 16.552 13.213 8.438 4.431 17.283 6.678 26.289 6.678 10.805 0 22.259-3.227 34.045-9.591 11.979-6.508 15.633-7.896 17.34-8.374 1.718-.493 3.525-.744 5.352-.744z"/></svg></svg>